<svg width="1213" height="1571" viewBox="0 0 1213 1571" fill="none" xmlns="http://www.w3.org/2000/svg">
<path opacity="0.2" d="M16.4492 1208.9C16.4492 1208.9 194.948 1504.6 388.573 1504.6C582.195 1504.6 685.06 1393.28 839.357 1393.28C993.654 1393.28 1066.26 1570.7 1199.38 1570.7V154.823H16.4492V1208.9Z" fill="url(#paint0_linear)"/>
<path opacity="0.5" d="M1213 1115.84C1213 1115.84 1034.5 1411.54 840.87 1411.54C647.244 1411.54 544.381 1300.22 390.082 1300.22C235.787 1300.22 163.181 1477.64 30.0654 1477.64V61.7645H1213V1115.84H1213Z" fill="url(#paint1_linear)"/>
<path d="M0.555965 1054.09C0.555965 1054.09 179.062 1349.79 372.688 1349.79C566.31 1349.79 669.177 1238.47 823.472 1238.47C977.769 1238.47 1050.38 1415.89 1183.5 1415.89V0.0141602H0.553955V1054.09H0.555965Z" fill="url(#paint2_linear)"/>
<defs>
<linearGradient id="paint0_linear" x1="683.686" y1="1790.31" x2="521.687" y2="46.1837" gradientUnits="userSpaceOnUse">
<stop stop-color="#F7CA6A"/>
<stop offset="0.0694" stop-color="#F7CA65"/>
<stop offset="0.6767" stop-color="#F9C841"/>
<stop offset="1" stop-color="#F9C733"/>
</linearGradient>
<linearGradient id="paint1_linear" x1="545.759" y1="1697.26" x2="707.758" y2="-46.8749" gradientUnits="userSpaceOnUse">
<stop stop-color="#F7CA6A"/>
<stop offset="0.0694" stop-color="#F7CA65"/>
<stop offset="0.6767" stop-color="#F9C841"/>
<stop offset="1" stop-color="#F9C733"/>
</linearGradient>
<linearGradient id="paint2_linear" x1="0.556631" y1="707.953" x2="1183.5" y2="707.953" gradientUnits="userSpaceOnUse">
<stop stop-color="#F7CA6A"/>
<stop offset="0.0694" stop-color="#F7CA65"/>
<stop offset="0.6767" stop-color="#F9C841"/>
<stop offset="1" stop-color="#F9C733"/>
</linearGradient>
</defs>
</svg>
