<svg width="1214" height="1312" viewBox="0 0 1214 1312" fill="none" xmlns="http://www.w3.org/2000/svg">
<path opacity="0.2" d="M16.7962 1009.31C16.7962 1009.31 195.299 1256.05 388.93 1256.05C582.557 1256.05 685.425 1163.16 839.726 1163.16C994.027 1163.16 1066.63 1311.2 1199.76 1311.2V129.744H16.7942V1009.31H16.7962Z" fill="url(#paint0_linear)"/>
<path opacity="0.5" d="M1213.38 931.655C1213.38 931.655 1034.87 1178.4 841.239 1178.4C647.608 1178.4 544.742 1085.51 390.439 1085.51C236.14 1085.51 163.532 1233.55 30.4131 1233.55V52.0901H1213.38V931.655H1213.38Z" fill="url(#paint1_linear)"/>
<path d="M0.902401 880.128C0.902401 880.128 179.414 1126.87 373.045 1126.87C566.672 1126.87 669.541 1033.98 823.84 1033.98C978.142 1033.98 1050.76 1182.02 1183.88 1182.02V0.56311H0.900391V880.128H0.902401Z" fill="url(#paint2_linear)"/>
<defs>
<linearGradient id="paint0_linear" x1="684.053" y1="1494.46" x2="570.964" y2="35.2989" gradientUnits="userSpaceOnUse">
<stop stop-color="#F7CA6A"/>
<stop offset="0.0694" stop-color="#F7CA65"/>
<stop offset="0.6767" stop-color="#F9C841"/>
<stop offset="1" stop-color="#F9C733"/>
</linearGradient>
<linearGradient id="paint1_linear" x1="546.121" y1="1416.81" x2="659.21" y2="-42.355" gradientUnits="userSpaceOnUse">
<stop stop-color="#F7CA6A"/>
<stop offset="0.0694" stop-color="#F7CA65"/>
<stop offset="0.6767" stop-color="#F9C841"/>
<stop offset="1" stop-color="#F9C733"/>
</linearGradient>
<linearGradient id="paint2_linear" x1="0.902861" y1="591.294" x2="1183.88" y2="591.294" gradientUnits="userSpaceOnUse">
<stop stop-color="#F7CA6A"/>
<stop offset="0.0694" stop-color="#F7CA65"/>
<stop offset="0.6767" stop-color="#F9C841"/>
<stop offset="1" stop-color="#F9C733"/>
</linearGradient>
</defs>
</svg>
