<svg width="1213" height="1571" viewBox="0 0 1213 1571" fill="none" xmlns="http://www.w3.org/2000/svg">
<path opacity="0.2" d="M15.8916 1208.86C15.8916 1208.86 194.395 1504.56 388.026 1504.56C581.653 1504.56 684.52 1393.24 838.821 1393.24C993.123 1393.24 1065.73 1570.65 1198.86 1570.65V154.803H15.8916V1208.86Z" fill="url(#paint0_linear)"/>
<path opacity="0.5" d="M1212.47 1115.81C1212.47 1115.81 1033.97 1411.5 840.334 1411.5C646.703 1411.5 543.838 1300.18 389.535 1300.18C235.235 1300.18 162.628 1477.6 29.5087 1477.6V61.7466H1212.47V1115.81H1212.47Z" fill="url(#paint1_linear)"/>
<path d="M0 1054.06C0 1054.06 178.511 1349.75 372.142 1349.75C565.769 1349.75 668.639 1238.43 822.938 1238.43C977.239 1238.43 1049.85 1415.85 1182.97 1415.85V0H0V1054.06Z" fill="url(#paint2_linear)"/>
<defs>
<linearGradient id="paint0_linear" x1="683.148" y1="1790.26" x2="521.16" y2="46.171" gradientUnits="userSpaceOnUse">
<stop stop-color="#F7CA6A"/>
<stop offset="0.0694" stop-color="#F7CA65"/>
<stop offset="0.6767" stop-color="#F9C841"/>
<stop offset="1" stop-color="#F9C733"/>
</linearGradient>
<linearGradient id="paint1_linear" x1="545.217" y1="1697.21" x2="707.206" y2="-46.8919" gradientUnits="userSpaceOnUse">
<stop stop-color="#F7CA6A"/>
<stop offset="0.0694" stop-color="#F7CA65"/>
<stop offset="0.6767" stop-color="#F9C841"/>
<stop offset="1" stop-color="#F9C733"/>
</linearGradient>
<linearGradient id="paint2_linear" x1="-0.000617551" y1="707.925" x2="1182.97" y2="707.925" gradientUnits="userSpaceOnUse">
<stop stop-color="#F7CA6A"/>
<stop offset="0.0694" stop-color="#F7CA65"/>
<stop offset="0.6767" stop-color="#F9C841"/>
<stop offset="1" stop-color="#F9C733"/>
</linearGradient>
</defs>
</svg>
