<svg width="587" height="471" viewBox="0 0 587 471" fill="none" xmlns="http://www.w3.org/2000/svg">
<path d="M7.58831 238.297C7.79416 247.458 14.3319 254.69 22.1933 254.45L119.297 251.479C127.156 251.234 133.363 243.616 133.155 234.453L131.685 159.885C131.479 150.727 124.939 143.493 117.08 143.735L19.9743 146.705C12.1149 146.945 5.9107 154.566 6.11655 163.727L7.58831 238.297Z" fill="#741112"/>
<path opacity="0.8" d="M6.49319 180.504L6.11652 161.455C6.05888 158.921 6.50756 156.514 7.33097 154.34C10.2067 153.966 13.0948 153.524 14.8569 153.088C18.9945 152.053 112.619 149.767 129.569 149.359C130.843 151.77 131.617 154.582 131.685 157.613L131.856 166.263L6.49319 180.504Z" fill="#AC1F23"/>
<path d="M0.593623 159.42C0.696549 163.988 3.95739 167.595 7.87678 167.475L130.115 163.732C134.034 163.612 137.128 159.811 137.025 155.242L136.749 143.049C136.646 138.483 133.386 134.876 129.466 134.996L7.22822 138.739C3.30883 138.859 0.214994 142.66 0.319978 147.228L0.593623 159.42Z" fill="#ED1D24"/>
<path opacity="0.4" d="M7.23018 138.739L127.292 135.066C109.937 165.241 68.0035 225.589 7.46086 231.816L6.18861 167.283C3.06381 166.494 0.684345 163.31 0.59583 159.42L0.321932 147.229C0.216949 142.658 3.30873 138.857 7.23018 138.739Z" fill="#F1F1F3"/>
<path d="M122.54 323.073C116.197 327.296 113.721 336.553 117.041 344.15C119.849 350.578 125.923 353.798 131.759 352.524L122.54 323.073Z" fill="#FAC433"/>
<path opacity="0.7" d="M122.54 323.073C116.197 327.296 113.721 336.553 117.041 344.15C117.356 344.872 117.719 345.546 118.112 346.184C119.31 345.947 120.498 345.498 121.64 344.824C124.207 343.3 126.111 340.862 127.222 338.029L122.54 323.073Z" fill="#F1F1F3"/>
<path opacity="0.4" d="M338.557 229.049C335.01 218.335 332.527 211.082 332.527 211.082L361.517 215.3C361.517 215.3 361.346 216.716 362.925 223.806C358.817 225.061 348.905 227.849 338.557 229.049Z" fill="#AC1F23"/>
<path opacity="0.7" d="M586.602 92.3413L389.844 171.143V197.412L586.602 253.991V92.3413Z" fill="#F1F1F3"/>
<path d="M437.904 360.446C437.904 360.446 398.313 340.351 379.98 282.815C360.652 222.165 361.519 215.298 361.519 215.298L332.529 211.08C332.529 211.08 361.322 295.218 363.059 314.049C364.796 332.877 362.641 381.631 294.457 386.78C294.457 386.78 268.714 390.629 260.928 375.558C253.147 360.487 252.054 350.822 261.056 342.383C270.06 333.942 286.929 305.355 273.403 287.909C259.874 270.463 237.678 276.246 205.657 273.654C173.637 271.063 128.575 272.44 128.575 272.44C128.575 272.44 105.291 267.661 92.2237 291.415C82.6846 308.76 82.5734 310.08 82.5734 310.08C82.5734 310.08 75.1319 327.2 99.5787 326.401C126.265 325.532 128.834 342.347 127.257 350.05C125.679 357.754 125.678 357.754 125.678 357.754L111.86 405.123L368.152 412.59L437.904 360.446Z" fill="#D71F26"/>
<path opacity="0.4" d="M92.2236 291.415C105.291 267.66 128.575 272.44 128.575 272.44C128.575 272.44 173.637 271.063 205.657 273.654C237.677 276.246 259.874 270.463 273.403 287.909C275.435 290.532 276.768 293.406 277.559 296.425C253.608 298.923 169.234 313.405 114.75 395.221L125.68 357.756C125.68 357.756 125.681 357.757 127.259 350.052C128.838 342.347 126.269 325.532 99.5807 326.403C75.1339 327.202 82.5754 310.082 82.5754 310.082C82.5754 310.082 82.6845 308.76 92.2236 291.415Z" fill="#AC1F23"/>
<path opacity="0.9" d="M361.519 215.3C361.519 215.3 360.652 222.165 379.98 282.818C398.313 340.354 437.904 360.449 437.904 360.449L419.637 374.104C388.78 327.272 354.895 267.221 341.099 212.33L361.519 215.3Z" fill="#F1F1F3"/>
<path opacity="0.4" d="M368.154 412.592L111.862 405.125L119.382 379.346C254.852 416.335 380.369 383.013 430.712 365.823L368.154 412.592Z" fill="#AC1F23"/>
<path d="M403.789 359.126C376.487 359.96 354.909 385.297 355.593 415.718C356.277 446.139 378.964 470.124 406.266 469.29C433.568 468.456 455.146 443.119 454.462 412.698C453.778 382.277 431.091 358.292 403.789 359.126Z" fill="#353132"/>
<path d="M405.777 449.914C423.717 449.362 437.955 433.043 437.515 413.534C437.087 394.564 422.554 379.13 405.12 379.13C404.807 379.13 404.497 379.135 404.182 379.145C386.242 379.694 372.003 396.015 372.443 415.525C372.871 434.495 387.403 449.926 404.836 449.926C405.149 449.926 405.462 449.921 405.777 449.914Z" fill="#717477"/>
<path d="M405.367 430.217C413.957 429.955 420.814 422.699 420.621 414.049C420.435 405.8 413.336 398.833 405.122 398.833L404.593 398.842C396.005 399.104 389.149 406.359 389.342 415.004C389.527 423.253 396.625 430.224 404.838 430.224L405.367 430.217Z" fill="#353132"/>
<path opacity="0.3" d="M355.548 416.041C354.862 385.621 376.437 360.288 403.739 359.453C431.041 358.613 453.728 382.598 454.413 413.015C454.44 414.222 454.419 415.417 454.378 416.602C437.009 418.135 387.051 424.23 363.625 444.838C358.734 436.553 355.786 426.694 355.548 416.041Z" fill="#717477"/>
<path d="M460.035 403.274C460.035 403.274 455.578 419.23 431.78 412.306C407.982 405.381 393.848 409.64 384.362 416.053C374.875 422.467 364.887 426.09 356.435 420.226C347.984 414.359 340.209 389.847 362.61 363.9C385.011 337.955 407.008 342.639 423.081 346.739C439.154 350.84 465.276 373.514 460.035 403.274Z" fill="#AC1F23"/>
<path opacity="0.4" d="M353.772 417.694C346.664 409.056 342.617 387.056 362.609 363.899C385.01 337.954 407.007 342.638 423.08 346.738C427.648 347.904 433.027 350.575 438.268 354.476C420.235 359.222 368.031 376.304 353.772 417.694Z" fill="#AC1F23"/>
<g opacity="0.7">
<path opacity="0.7" d="M452.361 405.035C453.763 405.035 454.918 403.736 454.959 402.093C455.644 375.361 437.692 360.71 436.928 360.1C435.743 359.15 434.125 359.508 433.314 360.885C432.503 362.265 432.803 364.148 433.985 365.096C434.15 365.228 450.36 378.557 449.763 401.913C449.72 403.583 450.848 404.979 452.285 405.032C452.309 405.034 452.334 405.035 452.361 405.035Z" fill="#F1F1F3"/>
</g>
<path d="M171.939 359.138C144.637 359.972 123.059 385.309 123.743 415.729C124.427 446.15 147.114 470.134 174.416 469.3C201.718 468.466 223.296 443.13 222.612 412.709C221.928 382.289 199.241 358.304 171.939 359.138Z" fill="#353132"/>
<path d="M173.915 449.914C191.855 449.362 206.094 433.043 205.655 413.534C205.227 394.564 190.694 379.13 173.259 379.13C172.946 379.13 172.635 379.135 172.32 379.145C154.38 379.694 140.141 396.015 140.582 415.525C141.01 434.495 155.541 449.926 172.975 449.926C173.287 449.926 173.6 449.921 173.915 449.914Z" fill="#717477"/>
<path d="M173.508 430.217C182.096 429.955 188.955 422.699 188.759 414.049C188.574 405.8 181.476 398.833 173.261 398.833L172.732 398.842C164.144 399.104 157.287 406.359 157.481 415.004C157.666 423.253 164.763 430.224 172.977 430.224L173.508 430.217Z" fill="#353132"/>
<path opacity="0.3" d="M123.686 416.041C123 385.621 144.578 360.288 171.878 359.453C199.179 358.613 221.866 382.598 222.552 413.015C222.579 414.222 222.558 415.417 222.517 416.602C205.147 418.135 155.189 424.23 131.764 444.838C126.873 436.553 123.927 426.694 123.686 416.041Z" fill="#717477"/>
<path d="M237.639 410.28C237.639 410.28 230.863 428.727 203.16 417.504C175.456 406.282 158.233 409.589 146.343 416.043C134.455 422.495 122.227 425.564 112.701 417.521C103.178 409.479 96.1708 379.315 125.235 351.213C154.299 323.111 180.063 331.442 198.828 338.333C217.592 345.226 246.617 375.493 237.639 410.28Z" fill="#AC1F23"/>
<g opacity="0.7">
<path opacity="0.7" d="M228.736 403.898C230.135 403.898 231.292 402.6 231.333 400.956C232.019 374.224 214.067 359.573 213.303 358.963C212.117 358.015 210.499 358.368 209.688 359.748C208.877 361.128 209.178 363.011 210.36 363.959C210.524 364.091 226.735 377.422 226.138 400.776C226.094 402.449 227.222 403.845 228.659 403.895C228.682 403.898 228.709 403.898 228.736 403.898Z" fill="#F1F1F3"/>
</g>
<path opacity="0.4" d="M125.234 351.213C154.298 323.111 180.062 331.442 198.827 338.333C203.463 340.037 208.727 343.173 213.885 347.444C191.409 356.643 131.59 383.555 111.79 416.677C102.763 407.542 97.1044 378.411 125.234 351.213Z" fill="#AC1F23"/>
<path d="M380.27 164.783C391.509 165.414 400.462 176.103 400.462 189.233C400.462 200.345 394.056 209.712 385.281 212.721L380.27 164.783Z" fill="#FAC433"/>
<path opacity="0.7" d="M380.27 164.783C391.509 165.414 400.462 176.103 400.462 189.233C400.462 190.481 400.369 191.699 400.215 192.897C398.428 193.547 396.526 193.9 394.554 193.9C390.116 193.9 386.042 192.108 382.814 189.125L380.27 164.783Z" fill="#F1F1F3"/>
<path d="M382.742 166.17L387.207 218.597C387.207 218.597 363.012 223.163 345.654 220.38C328.297 217.592 313.105 194.329 324.402 171.017C335.697 147.709 374.556 162.338 382.742 166.17Z" fill="#AC1F23"/>
<path d="M362.458 157.378C362.458 157.378 359.722 205.089 373.265 223.672L387.786 219.773L381.31 157.788L362.458 157.378Z" fill="#741112"/>
<path opacity="0.4" d="M328.491 165.238C336.941 192.4 372.779 205.208 386.683 209.222L387.786 219.77L373.267 223.669C372.594 222.746 371.972 221.731 371.377 220.675C363.432 221.373 353.792 221.683 345.654 220.377C328.297 217.589 313.105 194.327 324.402 171.014C325.51 168.732 326.908 166.841 328.491 165.238Z" fill="#AC1F23"/>
<path d="M11.7195 264.942C11.7668 266.993 13.2326 268.617 14.9967 268.565L121.578 264.601C123.342 264.546 124.734 262.835 124.688 260.781L124.563 255.293C124.517 253.242 123.052 251.62 121.288 251.671L14.7065 255.637C12.9423 255.69 11.5508 257.4 11.5981 259.454L11.7195 264.942Z" fill="#451E10"/>
<path d="M14.9116 269.323C12.814 269.323 11.1261 267.409 11.0705 264.961L10.9469 259.474C10.9201 258.279 11.2947 257.141 12.0008 256.275C12.7068 255.409 13.6621 254.912 14.6892 254.879L121.266 250.913H121.268C123.471 250.913 125.159 252.827 125.212 255.272L125.338 260.76C125.392 263.226 123.714 265.29 121.596 265.357L15.0187 269.321C15.0104 269.323 14.9178 269.323 14.9116 269.323ZM121.367 252.427L14.7244 256.393C14.041 256.414 13.4089 256.743 12.9416 257.317C12.4743 257.892 12.2272 258.644 12.2458 259.433L12.3694 264.92C12.4065 266.511 13.5448 267.807 14.9096 267.807V268.565L14.9775 267.807L121.555 263.843C122.961 263.798 124.072 262.432 124.035 260.801L123.909 255.313C123.876 253.696 122.759 252.427 121.367 252.427Z" fill="#451E10"/>
<path d="M96.0918 294.139C94.0456 290.758 61.2681 264.2 61.2681 264.2L96.0918 294.139Z" fill="#451E10"/>
<path d="M96.0918 294.896C95.8859 294.896 95.6862 294.783 95.5606 294.575C93.9344 291.89 69.988 272.189 60.8977 264.825C60.6033 264.585 60.5292 264.115 60.7351 263.772C60.9409 263.429 61.3464 263.342 61.6387 263.582C62.9808 264.669 94.5334 290.253 96.6228 293.704C96.8307 294.047 96.7608 294.519 96.4665 294.759C96.3532 294.85 96.2215 294.896 96.0918 294.896Z" fill="#451E10"/>
<path d="M96.0957 297.202C96.6165 297.202 97.1436 297.02 97.6047 296.641C98.778 295.676 99.0436 293.761 98.214 292.391C96.0711 288.847 70.5273 268.015 62.7482 261.715C61.5687 260.764 59.9485 261.1 59.1293 262.473C58.31 263.845 58.6003 265.734 59.7798 266.691C75.1568 279.149 92.374 293.634 93.994 295.935C94.4984 296.763 95.2888 297.202 96.0957 297.202Z" fill="#451E10"/>
<path d="M96.0957 297.958C95.052 297.958 94.0681 297.363 93.467 296.37C91.9684 294.246 74.9673 279.914 59.4132 267.313C58.6989 266.734 58.2211 265.868 58.0688 264.873C57.9144 263.877 58.1039 262.871 58.598 262.041C59.584 260.39 61.6958 259.942 63.1203 261.091C73.1165 269.189 96.6 288.406 98.747 291.955C99.7886 293.675 99.4429 296.055 97.9793 297.257C97.4215 297.716 96.7709 297.958 96.0957 297.958ZM61.2679 261.931C60.6277 261.931 60.0265 262.295 59.6642 262.905C59.3657 263.404 59.2544 264.006 59.3471 264.604C59.4376 265.201 59.726 265.722 60.1542 266.068C72.9334 276.421 92.6271 292.792 94.5003 295.453C95.1446 296.514 96.3715 296.727 97.232 296.019C98.111 295.297 98.3126 293.865 97.6868 292.826C96.0297 290.088 78.3636 275.279 62.3813 262.334C62.0519 262.07 61.6672 261.931 61.2679 261.931Z" fill="#451E10"/>
<path d="M112.56 292.118C110.512 288.735 77.7361 262.18 77.7361 262.18L112.56 292.118Z" fill="#451E10"/>
<path d="M112.562 292.876C112.356 292.876 112.156 292.763 112.029 292.554C110.402 289.867 86.456 270.168 77.3657 262.804C77.0713 262.564 76.9973 262.094 77.2031 261.751C77.411 261.408 77.8124 261.324 78.1067 261.561C79.4489 262.648 111.001 288.231 113.093 291.683C113.299 292.026 113.229 292.499 112.936 292.739C112.821 292.83 112.689 292.876 112.562 292.876Z" fill="#451E10"/>
<path d="M112.564 295.182C113.082 295.182 113.612 294.999 114.073 294.62C115.246 293.656 115.512 291.741 114.682 290.371C112.539 286.827 86.9952 265.996 79.2162 259.695C78.0366 258.742 76.4165 259.08 75.5972 260.453C74.7779 261.825 75.0703 263.714 76.2478 264.671C91.6248 277.126 108.842 291.614 110.462 293.915C110.968 294.743 111.757 295.182 112.564 295.182Z" fill="#451E10"/>
<path d="M112.564 295.94C111.52 295.94 110.538 295.345 109.933 294.352C108.432 292.218 91.4311 277.889 75.8791 265.292C74.4073 264.099 74.043 261.734 75.064 260.021C76.05 258.368 78.1641 257.921 79.5885 259.071C89.5846 267.169 113.068 286.383 115.215 289.932C116.257 291.652 115.911 294.032 114.447 295.234C113.892 295.697 113.239 295.94 112.564 295.94ZM77.7381 259.91C77.0979 259.91 76.4967 260.275 76.1344 260.884C75.521 261.914 75.7414 263.332 76.6224 264.047C89.3995 274.396 109.089 290.762 110.968 293.432C111.615 294.491 112.842 294.707 113.7 293.999C114.579 293.277 114.781 291.844 114.155 290.805C112.498 288.067 94.8317 273.258 78.8495 260.313C78.5202 260.052 78.1375 259.91 77.7381 259.91Z" fill="#451E10"/>
<path d="M126.014 269.352C127.36 269.352 128.283 269.436 128.674 269.479C130.174 269.436 141.702 269.119 156.535 269.119C176.241 269.119 192.827 269.652 205.832 270.703C214.11 271.374 221.893 271.48 228.758 271.576C248.75 271.852 264.541 272.073 275.284 285.927C275.918 286.743 276.482 287.597 277.009 288.473C260.714 286.388 220.777 282.669 175.459 288.739C130.201 294.803 103.48 307.203 79.2263 308.05C79.9983 305.391 82.6804 300.41 90.2536 289.55C102.965 271.319 119.495 269.352 126.014 269.352Z" fill="#451E10"/>
<path d="M79.2285 308.809C79.0226 308.809 78.8291 308.696 78.7056 308.501C78.5779 308.302 78.5428 308.043 78.6128 307.805C79.5639 304.533 82.9995 298.757 89.7514 289.071C102.636 270.588 119.404 268.591 126.014 268.591C127.268 268.591 128.186 268.661 128.733 268.721C131.673 268.632 142.597 268.356 156.535 268.356C176.268 268.356 192.87 268.892 205.878 269.942C214.087 270.61 221.819 270.717 228.641 270.813C248.917 271.094 264.833 271.313 275.768 285.416C276.355 286.172 276.935 287.029 277.542 288.034C277.689 288.279 277.701 288.598 277.571 288.855C277.442 289.109 277.203 289.251 276.939 289.222C268.051 288.084 249.72 286.174 226.827 286.174C209.202 286.174 191.944 287.288 175.536 289.488C152.736 292.543 134.915 297.138 119.192 301.193C104.239 305.049 91.3263 308.381 79.2491 308.801C79.2408 308.808 79.2347 308.809 79.2285 308.809ZM126.014 270.11C119.59 270.11 103.292 272.052 90.7601 290.028C84.881 298.46 81.4866 303.995 80.2062 307.251C91.88 306.692 104.437 303.453 118.912 299.719C134.666 295.657 152.521 291.053 175.387 287.986C191.847 285.781 209.153 284.663 226.829 284.663C248.577 284.663 266.225 286.381 275.601 287.533C275.334 287.139 275.07 286.777 274.805 286.434C264.251 272.822 248.585 272.606 228.752 272.332C221.786 272.234 214.035 272.126 205.789 271.457C192.81 270.406 176.24 269.875 156.538 269.875C142.614 269.875 131.704 270.151 128.692 270.235C128.186 270.187 127.282 270.11 126.014 270.11Z" fill="#451E10"/>
<g opacity="0.3">
<path opacity="0.3" d="M14.9971 268.565C13.2351 268.618 11.7673 266.995 11.7199 264.942L11.5965 259.454C11.5512 257.403 12.9428 255.692 14.7049 255.637L121.286 251.671C123.05 251.62 124.516 253.24 124.561 255.293L124.687 260.781C124.732 262.833 123.34 264.543 121.576 264.601L86.8203 265.894C91.2317 269.513 96.4973 273.875 101.275 277.942C111.267 270.396 121.28 269.352 126.012 269.352C127.358 269.352 128.28 269.436 128.672 269.479C130.172 269.436 141.7 269.119 156.534 269.119C176.24 269.119 192.825 269.652 205.833 270.703C214.11 271.374 221.893 271.48 228.758 271.576C245.531 271.809 259.335 272.032 269.694 280.272C246.472 278.033 146.669 269.724 118.869 289.102C111.448 294.272 102.982 300.41 94.0826 306.32C88.9508 307.258 84.0394 307.882 79.2266 308.052C79.9594 305.533 82.4089 300.926 89.0949 291.223C82.6168 285.469 70.8896 275.693 60.0249 266.89L14.9971 268.565ZM92.4483 286.616C93.8954 284.797 95.3795 283.17 96.8822 281.714C91.2872 276.985 84.6238 271.473 78.1519 266.213L68.7117 266.564C75.865 272.421 86.069 280.876 92.4483 286.616Z" fill="#451E10"/>
<path opacity="0.3" d="M79.2276 308.809C79.0217 308.809 78.8281 308.696 78.7046 308.501C78.577 308.302 78.5419 308.043 78.6119 307.805C79.4765 304.833 82.519 299.597 88.1737 291.353C82.0517 285.947 71.0532 276.75 59.8344 267.653L15.0187 269.321H15.0167C12.8141 269.321 11.1282 267.406 11.0705 264.961L10.9469 259.474C10.9201 258.279 11.2947 257.141 12.0008 256.275C12.7089 255.407 13.662 254.912 14.6892 254.879L121.266 250.913H121.268C123.471 250.913 125.159 252.827 125.212 255.272L125.338 260.76C125.392 263.226 123.714 265.29 121.596 265.357L88.7851 266.578C92.336 269.501 96.9595 273.333 101.301 277.025C113.697 267.862 125.997 268.428 128.734 268.726C131.674 268.637 142.594 268.361 156.535 268.361C176.267 268.361 192.869 268.896 205.879 269.947C214.088 270.614 221.82 270.722 228.642 270.818C245.256 271.049 259.497 271.245 270.063 279.648C270.306 279.842 270.407 280.203 270.31 280.527C270.213 280.85 269.962 281.054 269.643 281.028C258.13 279.919 228.016 277.337 197.136 277.337C157.243 277.337 131.022 281.515 119.206 289.752C116.989 291.297 114.679 292.929 112.291 294.614C106.571 298.652 100.655 302.829 94.407 306.978C94.3391 307.023 94.2649 307.054 94.1866 307.069C88.639 308.081 83.7542 308.653 79.2502 308.809C79.2399 308.809 79.2337 308.809 79.2276 308.809ZM60.0258 266.132C60.1576 266.132 60.2871 266.18 60.3962 266.269C72.0226 275.689 83.4433 285.248 89.4892 290.621C89.6291 290.743 89.7196 290.928 89.7402 291.132C89.7608 291.336 89.7116 291.537 89.6025 291.698C84.4233 299.215 81.3972 304.218 80.2033 307.254C84.345 307.054 88.8263 306.51 93.8635 305.593C100.055 301.478 105.931 297.33 111.614 293.318C114.004 291.631 116.316 289.999 118.535 288.452C130.556 280.071 157.002 275.823 197.134 275.823C225.9 275.823 253.999 278.06 267.064 279.264C257.058 272.726 243.86 272.543 228.751 272.335C221.787 272.236 214.035 272.128 205.788 271.459C192.809 270.408 176.239 269.878 156.535 269.878C142.607 269.878 131.701 270.154 128.689 270.238C128.187 270.187 127.281 270.11 126.013 270.11C121.096 270.11 111.389 271.209 101.63 278.578C101.404 278.748 101.112 278.739 100.893 278.554C95.778 274.199 90.2137 269.602 86.4487 266.514C86.2202 266.326 86.1193 265.988 86.1996 265.676C86.2799 265.364 86.5228 265.146 86.8007 265.136L121.557 263.843C122.963 263.798 124.074 262.432 124.037 260.801L123.912 255.313C123.877 253.696 122.759 252.427 121.367 252.427L14.7244 256.393C14.041 256.414 13.4089 256.743 12.9416 257.317C12.4722 257.892 12.2252 258.644 12.2438 259.433L12.3674 264.921C12.4044 266.511 13.5428 267.807 14.9076 267.807L60.0012 266.132C60.0115 266.132 60.0197 266.132 60.0258 266.132ZM92.4473 287.374C92.3073 287.374 92.1673 287.322 92.05 287.216C85.7365 281.534 75.6684 273.186 68.336 267.186C68.1075 266.998 68.0067 266.662 68.087 266.348C68.1672 266.036 68.4101 265.818 68.688 265.808L78.1282 265.458C78.2641 265.444 78.4062 265.501 78.5215 265.592C85.086 270.928 91.7412 276.435 97.2621 281.1C97.4247 281.239 97.5235 281.455 97.5297 281.69C97.5359 281.923 97.4493 282.148 97.297 282.297C95.7717 283.775 94.2998 285.402 92.9227 287.132C92.7971 287.293 92.6222 287.374 92.4473 287.374ZM70.6764 267.253C77.6445 272.97 86.4837 280.325 92.3772 285.599C93.4785 284.248 94.6353 282.962 95.8293 281.762C90.5019 277.268 84.1946 272.051 77.9573 266.979L70.6764 267.253Z" fill="#451E10"/>
</g>
<g opacity="0.4">
<path opacity="0.4" d="M11.5965 259.454C11.5512 257.403 12.9428 255.692 14.7049 255.637L121.286 251.671C122.632 251.628 123.799 252.568 124.3 253.926L11.7096 264.618L11.5965 259.454Z" fill="#451E10"/>
<path opacity="0.4" d="M11.7116 265.376C11.551 265.376 11.3968 265.307 11.2774 265.182C11.1456 265.043 11.0654 264.846 11.0613 264.637L10.9459 259.474C10.9192 258.279 11.2937 257.141 11.9998 256.275C12.7079 255.407 13.6611 254.912 14.6883 254.879L121.265 250.913C121.267 250.913 121.267 250.913 121.269 250.913C122.908 250.913 124.289 251.978 124.898 253.626C124.981 253.852 124.966 254.108 124.857 254.317C124.75 254.526 124.561 254.663 124.353 254.682L11.7631 265.374C11.7487 265.376 11.7301 265.376 11.7116 265.376ZM121.374 252.427L14.7255 256.393C14.042 256.414 13.4099 256.743 12.9426 257.316C12.4733 257.892 12.2263 258.643 12.2448 259.433L12.3415 263.797L123.145 253.276C122.683 252.741 122.051 252.427 121.374 252.427Z" fill="#451E10"/>
</g>
<path d="M265.731 112.595C265.731 112.595 259.146 119.109 257.649 125.47L225.915 112.924C225.915 112.924 228.307 106.805 231.333 102.695C234.361 98.5826 265.731 112.595 265.731 112.595Z" fill="#EDAC80"/>
<path opacity="0.5" d="M231.333 102.695C234.361 98.5826 265.731 112.595 265.731 112.595C265.731 112.595 264.905 113.416 263.779 114.745C256.785 113.591 237.991 110.781 232.47 112.924C230.353 113.747 228.223 113.183 226.29 112.017C227.072 110.165 229.013 105.848 231.333 102.695Z" fill="#EDAC80"/>
<path d="M267.896 13.1037C239.798 8.93718 214.598 27.7523 211.61 55.1281C208.622 82.504 228.978 108.074 257.076 112.241C285.173 116.407 310.373 97.5923 313.361 70.2164C316.349 42.8405 295.993 17.2702 267.896 13.1037Z" fill="#FCBE90"/>
<path d="M307.23 94.4194C309.696 94.4194 311.695 92.0896 311.695 89.2153C311.695 86.3411 309.696 84.0112 307.23 84.0112C304.764 84.0112 302.765 86.3411 302.765 89.2153C302.765 92.0896 304.764 94.4194 307.23 94.4194Z" fill="#FCBE90"/>
<path d="M301.191 80.8945C303.345 80.8945 305.091 78.8586 305.091 76.3472C305.091 73.8358 303.345 71.7998 301.191 71.7998C299.036 71.7998 297.29 73.8358 297.29 76.3472C297.29 78.8586 299.036 80.8945 301.191 80.8945Z" fill="#3F1C15"/>
<path d="M303.13 78.5879C303.758 78.5879 304.268 77.9936 304.268 77.2608C304.268 76.5281 303.758 75.9341 303.13 75.9341C302.501 75.9341 301.991 76.5281 301.991 77.2608C301.991 77.9936 302.501 78.5879 303.13 78.5879Z" fill="#F1F0F0"/>
<path d="M303.747 68.0571C303.747 68.0571 303.15 67.4188 302.1 67.0229C301.578 66.8166 300.948 66.656 300.258 66.6296C299.915 66.6032 299.554 66.6223 299.19 66.6703C298.823 66.6943 298.457 66.8214 298.089 66.9102C297.726 67.0493 297.362 67.1886 297.02 67.3806C296.681 67.5965 296.345 67.7834 296.059 68.0642C295.771 68.3401 295.491 68.5826 295.279 68.9065C295.067 69.2232 294.857 69.4894 294.733 69.8133C294.441 70.4131 294.313 70.9578 294.284 71.3609C294.241 71.7544 294.245 71.9751 294.245 71.9751C294.245 71.9751 294.435 71.8697 294.715 71.6945C294.845 71.6105 295.003 71.5026 295.184 71.3826C295.377 71.2842 295.587 71.1809 295.785 71.049C295.976 70.9122 296.244 70.8499 296.463 70.7227C296.677 70.5907 296.95 70.5285 297.191 70.4061C297.428 70.2813 297.716 70.2309 297.965 70.1085C298.237 70.0149 298.511 69.9215 298.784 69.8303C299.896 69.468 301.094 69.132 302.057 68.7601C303.021 68.4266 303.747 68.0571 303.747 68.0571Z" fill="#753824"/>
<path d="M296.647 99.881C296.647 99.881 296.141 99.7229 295.384 99.4853C294.653 99.2453 293.714 98.9668 292.86 98.542C292.648 98.434 292.423 98.3548 292.23 98.218C292.032 98.0884 291.82 97.9973 291.643 97.8533C291.26 97.6061 290.927 97.323 290.639 97.0638C290.344 96.8046 290.103 96.5599 289.937 96.3751C289.762 96.1951 289.646 96.0968 289.646 96.0968C289.675 96.0728 289.644 96.764 290.062 97.6207C290.149 97.8487 290.281 98.0668 290.437 98.2804C290.581 98.5108 290.752 98.734 290.962 98.9284C291.349 99.3652 291.857 99.6772 292.368 99.9484C292.895 100.179 293.436 100.349 293.951 100.392C294.463 100.459 294.943 100.421 295.347 100.352C296.158 100.212 296.647 99.881 296.647 99.881Z" fill="#F26848"/>
<path opacity="0.4" d="M255.953 111.976C228.47 107.276 208.723 82.055 211.668 55.0662C214.655 27.691 239.856 8.8771 267.954 13.0449C293.099 16.7737 312.027 37.6463 313.589 61.6119C307.097 59.7499 293.424 56.8492 284.749 62.2791C273.047 69.6046 269.364 90.5683 269.364 90.5683C269.364 90.5683 265.679 103.305 255.953 111.976Z" fill="#FCBE90"/>
<path d="M211.669 55.0661C214.655 27.6909 239.856 8.87711 267.954 13.0449C287.537 15.9482 303.346 29.253 310.125 46.3154C302.197 56.8417 287.022 73.429 269.374 74.6359C269.374 74.6359 264.813 78.4439 263.728 87.7897C262.878 95.1296 252.536 105.579 240.162 106.671C221.331 96.8716 209.326 76.5266 211.669 55.0661Z" fill="#753824"/>
<path d="M239.852 104.358C239.852 104.358 237.995 131.51 216.91 135.615C216.91 135.615 221.052 133.957 221.486 127.747C221.486 127.747 195.43 164.773 156.368 130.289C156.368 130.289 175.882 134.454 187.023 126.173C198.163 117.893 195.996 97.3828 210.434 89.0856C224.873 80.7908 226.499 87.9002 226.499 87.9002L239.852 104.358Z" fill="#753824"/>
<path opacity="0.3" d="M156.367 130.289C156.367 130.289 170.605 133.321 181.701 129.046C199.145 140.078 229.304 108.648 236.698 100.468L239.851 104.358C239.851 104.358 237.995 131.51 216.909 135.615C216.909 135.615 221.051 133.957 221.485 127.747C221.487 127.747 195.429 164.773 156.367 130.289Z" fill="#753824"/>
<path d="M264.819 55.8176C264.819 55.8176 259.79 64.952 264.271 73.3715C268.755 81.7934 271.101 104.358 245.988 104.732C220.872 105.101 209.816 82.2085 205.59 69.1245C201.363 56.0405 201.666 8.63541 238.482 2.24099C275.301 -4.14864 300.398 10.1855 313.295 26.5303C326.191 42.8751 312.661 52.6982 301.923 53.7875C291.186 54.8769 270.782 43.3167 264.819 55.8176Z" fill="#ED1D24"/>
<path d="M242.935 100.689C248.013 100.487 252.062 98.6734 255.016 95.2566C261.385 87.8976 260.183 75.9365 260.13 75.4302C260.041 74.6 259.374 74.0218 258.678 74.1154C257.968 74.2186 257.462 74.9743 257.548 75.8069C257.559 75.9149 258.637 86.8203 253.174 93.1164C249.817 96.9843 244.623 98.4 237.735 97.3251C237.015 97.2099 236.369 97.7954 236.272 98.6256C236.177 99.4558 236.677 100.219 237.387 100.331C239.355 100.641 241.204 100.756 242.935 100.689Z" fill="#741112"/>
<path d="M239.998 93.5508C246.388 93.5508 251.568 87.5124 251.568 80.0636C251.568 72.6148 246.388 66.5762 239.998 66.5762C233.607 66.5762 228.427 72.6148 228.427 80.0636C228.427 87.5124 233.607 93.5508 239.998 93.5508Z" fill="#741112"/>
<path opacity="0.4" d="M245.988 104.735C220.872 105.104 209.816 82.2115 205.59 69.1274C204.301 65.1348 203.44 57.9412 203.902 49.6968C218.083 77.511 254.082 85.6184 267.021 87.67C266.342 96.1183 261.219 104.507 245.988 104.735Z" fill="#AC1F23"/>
<path opacity="0.5" d="M238.483 2.24376C243.789 1.32479 248.845 0.844664 253.664 0.729492C218.26 22.6409 241.253 46.3663 263.001 60.8731C262.201 64.2658 261.9 68.9158 264.273 73.3715C268.757 81.7934 271.104 104.358 245.99 104.732C220.874 105.101 209.818 82.2085 205.592 69.1245C201.364 56.043 201.666 8.63818 238.483 2.24376Z" fill="#AC1F23"/>
<path d="M299.266 353.001C299.266 353.001 299.682 359.808 304.597 363.647C309.515 367.484 320.668 372.866 320.668 372.866C320.668 372.866 324.606 373.638 322.628 378.992C320.65 384.345 307.191 383.548 296.691 381.996C286.188 380.441 279.626 379.661 279.636 373.537C279.646 367.417 282.302 350.589 282.302 350.589L299.266 353.001Z" fill="#753824"/>
<g opacity="0.3">
<path opacity="0.3" d="M279.636 373.535C279.646 367.414 282.302 350.587 282.302 350.587L288.747 351.506C281.108 372.964 312.42 378.727 322.076 379.977C318.863 384.229 306.493 383.444 296.691 381.995C286.188 380.438 279.626 379.661 279.636 373.535Z" fill="#451E10"/>
<path opacity="0.3" d="M310.225 383.908C306.401 383.908 301.818 383.517 296.608 382.746L295.668 382.607C285.616 381.124 278.973 380.143 278.986 373.535C278.996 367.416 281.554 351.141 281.662 350.45C281.723 350.056 282.046 349.792 282.38 349.836L288.825 350.755C289.027 350.783 289.206 350.92 289.309 351.124C289.412 351.328 289.426 351.577 289.348 351.796C287.751 356.288 287.845 360.352 289.632 363.882C295.231 374.934 315.936 378.42 322.148 379.226C322.389 379.257 322.595 379.442 322.683 379.706C322.772 379.97 322.727 380.268 322.564 380.479C320.821 382.785 316.784 383.908 310.225 383.908ZM282.831 351.424C282.333 354.671 280.295 368.259 280.284 373.535C280.276 378.583 285.326 379.55 295.83 381.103L296.773 381.242C301.928 382.005 306.454 382.391 310.225 382.391C315.87 382.391 318.855 381.511 320.425 380.51C311.555 379.205 293.914 375.31 288.512 364.65C286.631 360.935 286.406 356.732 287.837 352.137L282.831 351.424Z" fill="#451E10"/>
</g>
<path d="M253.237 238.262C253.237 238.262 295.271 248.203 300.776 249.566C306.28 250.924 326.192 260.27 323.168 281.541C320.144 302.812 305.146 356.089 305.146 356.089C305.146 356.089 288.095 357.12 280.998 353.001C280.998 353.001 288.13 302.67 291.529 290.131C291.628 289.766 291.724 289.433 291.817 289.133C295.082 278.573 267.685 277.114 248.418 276.939C229.15 276.761 184.818 281.435 192.69 232.46L240.661 233.797L253.237 238.262Z" fill="#0367A8"/>
<path opacity="0.4" d="M192.689 232.46L198.657 232.624C209.573 261.865 267.248 271.941 291.464 274.703C315.019 277.388 306.51 331.077 303.263 356.161C298.638 356.295 286.657 356.286 280.997 353.001C280.997 353.001 288.129 302.67 291.528 290.131C291.627 289.766 291.723 289.433 291.816 289.133C295.081 278.573 267.684 277.114 248.417 276.939C229.151 276.761 184.817 281.435 192.689 232.46Z" fill="#079BAA"/>
<path d="M260.099 125.013C260.099 125.013 241.844 109.945 227.7 108.848C227.7 108.848 208.849 146.55 203.379 166.11C197.91 185.668 179.546 232.094 195.623 236.452C211.702 240.804 234.514 238.57 240.823 236.845C247.133 235.12 248.024 225.431 246.935 216.023C245.848 206.615 253.973 186.522 255.867 183.146C257.759 179.772 267.79 177.932 267.512 165.698C267.236 153.456 260.202 139.362 260.095 124.821" fill="#FAC433"/>
<path opacity="0.3" d="M227.702 108.847C229.252 108.967 230.856 109.262 232.476 109.682C231.71 111.71 230.74 113.982 229.491 116.588C201.244 175.503 236.661 213.147 247.324 222.676C247.287 229.593 245.632 235.534 240.823 236.847C234.514 238.572 211.701 240.806 195.622 236.453C179.543 232.096 197.907 185.669 203.379 166.112C208.85 146.549 227.702 108.847 227.702 108.847Z" fill="#FAC433"/>
<path d="M272.994 158.285C272.994 158.285 290.024 175.755 291.595 177.401C292.083 177.913 296.482 183.143 307.349 185.413C314.115 186.826 324.718 188.455 331.754 189.48C333.006 184.256 337.111 180.424 341.989 180.424C347.864 180.424 352.625 185.972 352.625 192.82C352.625 199.668 347.864 205.218 341.989 205.218C338.346 205.218 335.134 203.08 333.218 199.826C324.449 201.434 310.076 203.843 298.524 204.719C281.969 205.969 275.409 194.912 275.409 194.912L255.174 170.424L272.994 158.285Z" fill="#FCBE90"/>
<path d="M267.513 165.699C277.122 192.313 314.532 199.123 328.11 200.736C319.474 202.235 308.039 203.996 298.523 204.718C281.968 205.968 275.408 194.912 275.408 194.912L255.173 170.424L266.377 162.791C266.754 163.676 267.133 164.641 267.513 165.699Z" fill="#EDAC80"/>
<path d="M286.316 163.336C286.316 163.336 265.805 183.124 254.804 184.177C254.804 184.177 246.29 173.373 241.311 159.314C236.329 145.259 244.646 127.477 258.619 134.713C272.59 141.945 279.492 158.357 286.316 163.336Z" fill="#CC972B"/>
<path opacity="0.5" d="M282.903 166.479C276.602 172.106 263.04 183.39 254.804 184.177C254.804 184.177 246.292 173.373 241.313 159.315C239.436 154.017 239.45 148.193 240.938 143.375C247.365 163.77 270.735 166.499 282.903 166.479Z" fill="#FAC433"/>
<path d="M262.225 124.875L266.221 135.836L224.182 112.672L227.325 102.062L262.225 124.875Z" fill="#CC972B"/>
<path opacity="0.5" d="M226.899 103.501L264.607 131.409L266.221 135.836L224.182 112.672L226.899 103.501Z" fill="#FAC433"/>
<path d="M345.782 201.175C349.741 201.175 352.949 197.434 352.949 192.82C352.949 188.206 349.741 184.465 345.782 184.465C341.823 184.465 338.614 188.206 338.614 192.82C338.614 197.434 341.823 201.175 345.782 201.175Z" fill="#321414"/>
<path fill-rule="evenodd" clip-rule="evenodd" d="M51.6753 186.473L50.9404 186.303L51.422 186.056L51.6753 186.473Z" fill="#EAA42C"/>
<path fill-rule="evenodd" clip-rule="evenodd" d="M82.5427 185.312L83.2673 185.084L82.7711 184.873L82.5427 185.312Z" fill="#EAA42C"/>
<path fill-rule="evenodd" clip-rule="evenodd" d="M68.6828 241.337C78.0017 240.912 81.1677 239.938 83.7779 239.062C87.2135 237.529 87.4689 232.279 87.9547 228.956C88.8666 222.712 88.039 196.244 86.1678 190.548C85.54 188.638 83.6543 188.18 82.9544 187.035L82.7197 183.035L67.0484 183.628L51.3789 184.218L51.3646 188.23C50.7305 189.42 48.8737 190.02 48.3529 191.976C46.8029 197.801 47.3957 224.277 48.6535 230.441C49.3225 233.716 49.9152 238.937 53.4291 240.206C55.8932 240.857 59.5162 241.685 68.6828 241.337Z" fill="#E89E23"/>
<path fill-rule="evenodd" clip-rule="evenodd" d="M68.7467 240.494C75.865 240.225 81.2994 238.577 81.2726 237.687C81.2479 236.799 75.7745 237.003 68.6562 237.272C61.5379 237.538 55.6465 237.901 55.6712 238.791C55.698 239.678 61.6284 240.76 68.7467 240.494Z" fill="#D18F29"/>
<path fill-rule="evenodd" clip-rule="evenodd" d="M83.6274 236.617C83.9918 236.276 85.7662 235.23 86.2314 235.115C86.5814 235.794 84.5971 237.589 83.9013 237.865C82.8926 238.268 80.4635 237.961 80.3482 238.001C80.2967 237.953 82.8183 237.253 82.8266 237.171C83.3947 236.773 83.0675 237.137 83.6274 236.617Z" fill="#F5D590"/>
<path fill-rule="evenodd" clip-rule="evenodd" d="M54.0383 237.73C53.6555 237.418 51.8256 236.509 51.3563 236.43C51.0434 237.133 53.1244 238.773 53.8346 238.996C54.8638 239.325 57.4164 239.045 57.5358 239.076C57.5831 239.025 54.8804 238.303 54.868 238.227C54.2793 237.869 54.627 238.212 54.0383 237.73Z" fill="#F5D590"/>
<path fill-rule="evenodd" clip-rule="evenodd" d="M68.4561 239.983C75.5744 239.717 81.6079 238.282 81.5873 237.593C81.5688 236.902 75.5045 237.214 68.3862 237.48C61.2679 237.749 55.0945 237.989 55.115 238.682C55.1336 239.374 61.3378 240.252 68.4561 239.983Z" fill="#F5CD52"/>
<path fill-rule="evenodd" clip-rule="evenodd" d="M66.8238 240.804C67.2644 240.784 67.6926 240.763 68.1084 240.744L68.0569 238.906L58.9089 239.251L58.9602 240.607C61.0187 240.717 63.5652 240.926 66.8238 240.804Z" fill="url(#paint0_linear)"/>
<path fill-rule="evenodd" clip-rule="evenodd" d="M68.627 239.364C77.7194 238.666 81.1139 237.989 83.722 237.133C87.1597 235.633 87.5736 230.992 88.0614 227.76C88.9775 221.673 88.0262 195.899 86.1612 190.349C85.5355 188.489 83.6499 188.043 82.9521 186.932L82.7194 183.035L67.0482 183.628L51.3788 184.218L51.3624 188.125C50.7263 189.283 48.8696 189.874 48.3488 191.776C46.7946 197.451 47.2741 223.245 48.5277 229.248C49.1947 232.439 49.8638 237.037 53.3777 238.275C55.8397 238.906 59.4605 239.71 68.627 239.364Z" fill="url(#paint1_linear)"/>
<path fill-rule="evenodd" clip-rule="evenodd" d="M52.0972 186.015C52.3895 186.044 54.6168 186.123 55.2857 186.121C55.3104 186.97 55.3206 187.675 55.3433 188.522C54.6125 188.551 52.7887 188.513 52.163 188.4C52.1424 187.584 52.1198 186.828 52.0972 186.015Z" fill="url(#paint2_linear)"/>
<path fill-rule="evenodd" clip-rule="evenodd" d="M81.888 184.89C81.5998 184.94 79.8499 185.161 79.1809 185.209C79.2036 186.058 79.2324 186.761 79.255 187.613C79.9858 187.584 81.3362 187.436 81.9558 187.275C81.9332 186.459 81.9106 185.706 81.888 184.89Z" fill="url(#paint3_linear)"/>
<path fill-rule="evenodd" clip-rule="evenodd" d="M51.0781 186.265C51.1481 186.471 58.2685 186.413 67.1201 186.077C75.9738 185.744 83.078 185.283 83.1418 185.053C83.3023 185.048 83.4382 185.166 83.4423 185.362L83.4586 185.919C83.4628 186.116 83.3353 186.243 83.1747 186.248C83.1809 186.483 76.009 186.941 67.1553 187.277C66.0211 187.32 50.8414 188.283 50.8105 187.152L50.7942 186.593C50.788 186.397 50.9175 186.269 51.0781 186.265Z" fill="#EAA42C"/>
<path fill-rule="evenodd" clip-rule="evenodd" d="M52.0664 186.37C53.5546 186.413 56.383 186.389 59.9606 186.303C60.2137 186.413 60.3536 186.531 60.3495 186.649C60.3372 187.076 58.4701 187.347 56.1812 187.253C55.3496 187.222 54.1887 187.27 53.5424 187.167C52.4843 186.994 52.1508 186.624 52.0664 186.37Z" fill="url(#paint4_linear)"/>
<path fill-rule="evenodd" clip-rule="evenodd" d="M79.1667 185.482C80.0437 185.533 80.4554 185.691 80.4636 185.905C80.4657 186.039 80.2907 186.361 80.1219 186.62C77.629 186.8 73.8865 187.001 69.5863 187.181C68.1783 187.008 67.0996 186.68 66.7559 186.094L67.1202 186.078C71.9207 185.898 76.2107 185.682 79.1667 185.482Z" fill="url(#paint5_linear)"/>
<path fill-rule="evenodd" clip-rule="evenodd" d="M77.3262 189.261C79.1912 189.921 81.9476 191.529 82.349 194.075C83.1045 198.864 84.9407 220.985 83.8826 227.391L86.8015 226.515C88.37 219.233 86.9682 194.852 85.5272 191.582C84.9138 190.187 82.3326 188.482 81.4474 188.515C79.4527 189.031 79.3476 188.676 77.3262 189.261Z" fill="url(#paint6_linear)"/>
<path fill-rule="evenodd" clip-rule="evenodd" d="M49.0796 227.858C49.5181 240.482 64.6501 238.577 70.0104 238.167C72.2233 237.994 70.2823 234.932 69.4589 234.548C63.6333 231.827 50.3559 226.896 49.0796 227.858Z" fill="url(#paint7_linear)"/>
<path fill-rule="evenodd" clip-rule="evenodd" d="M49.2566 227.969C49.6868 240.369 64.5532 238.5 69.8208 238.095C71.9946 237.924 70.0886 234.92 69.2796 234.541C63.5529 231.871 50.5102 227.024 49.2566 227.969Z" fill="url(#paint8_linear)"/>
<path fill-rule="evenodd" clip-rule="evenodd" d="M49.4316 228.084C49.8557 240.264 64.4544 238.424 69.6274 238.03C71.762 237.862 69.889 234.911 69.0944 234.539C63.4726 231.914 50.6626 227.153 49.4316 228.084Z" fill="url(#paint9_linear)"/>
<path fill-rule="evenodd" clip-rule="evenodd" d="M49.6086 228.194C50.0245 240.151 64.3598 238.347 69.436 237.958C71.5337 237.795 69.6956 234.896 68.9154 234.531C63.3924 231.954 50.817 227.283 49.6086 228.194Z" fill="url(#paint10_linear)"/>
<path fill-rule="evenodd" clip-rule="evenodd" d="M49.7859 228.307C50.1935 240.043 64.2612 238.272 69.2449 237.891C71.3034 237.73 69.498 234.884 68.7322 234.527C63.3143 231.998 50.9716 227.412 49.7859 228.307Z" fill="url(#paint11_linear)"/>
<path fill-rule="evenodd" clip-rule="evenodd" d="M49.9604 228.421C50.3598 239.931 64.1602 238.196 69.0492 237.819C71.0666 237.663 69.2985 234.87 68.5472 234.52C63.2341 232.039 51.1256 227.54 49.9604 228.421Z" fill="url(#paint12_linear)"/>
<path fill-rule="evenodd" clip-rule="evenodd" d="M50.1355 228.531C50.5266 239.823 64.0655 238.117 68.8598 237.75C70.838 237.596 69.1027 234.856 68.3657 234.515C63.1536 232.082 51.278 227.669 50.1355 228.531Z" fill="url(#paint13_linear)"/>
<path fill-rule="evenodd" clip-rule="evenodd" d="M50.3127 228.643C50.6977 239.712 63.9667 238.039 68.6663 237.682C70.6054 237.531 68.9051 234.846 68.1825 234.51C63.0734 232.122 51.4326 227.798 50.3127 228.643Z" fill="url(#paint14_linear)"/>
<path fill-rule="evenodd" clip-rule="evenodd" d="M50.4875 228.756C50.8663 239.601 63.8679 237.965 68.4748 237.612C70.3748 237.463 68.7073 234.834 67.9991 234.503C62.9949 232.166 51.5868 227.928 50.4875 228.756Z" fill="url(#paint15_linear)"/>
<path fill-rule="evenodd" clip-rule="evenodd" d="M50.6648 228.869C51.0333 239.493 63.7712 237.888 68.2835 237.543C70.1464 237.396 68.5121 234.819 67.8184 234.495C62.9129 232.209 51.7393 228.056 50.6648 228.869Z" fill="url(#paint16_linear)"/>
<path fill-rule="evenodd" clip-rule="evenodd" d="M50.8418 228.979C51.2041 239.381 63.6743 237.809 68.0918 237.473C69.9135 237.329 68.314 234.807 67.6347 234.491C62.8323 232.25 51.8937 228.185 50.8418 228.979Z" fill="url(#paint17_linear)"/>
<path fill-rule="evenodd" clip-rule="evenodd" d="M51.0166 229.092C51.3707 239.273 63.5756 237.735 67.8984 237.404C69.6831 237.265 68.1167 234.798 67.4539 234.486C62.7544 232.293 52.0479 228.314 51.0166 229.092Z" fill="url(#paint18_linear)"/>
<path fill-rule="evenodd" clip-rule="evenodd" d="M51.1936 229.205C51.5394 239.162 63.4766 237.658 67.7048 237.334C69.4524 237.197 67.9187 234.783 67.2703 234.481C62.6737 232.334 52.2002 228.442 51.1936 229.205Z" fill="url(#paint19_linear)"/>
<path fill-rule="evenodd" clip-rule="evenodd" d="M51.3706 229.318C51.7103 239.054 63.3799 237.581 67.5154 237.267C69.2218 237.135 67.7255 234.771 67.0894 234.474C62.5937 232.377 52.3566 228.572 51.3706 229.318Z" fill="url(#paint20_linear)"/>
<path fill-rule="evenodd" clip-rule="evenodd" d="M51.5457 229.429C51.8771 238.942 63.2831 237.504 67.3219 237.195C68.9913 237.065 67.5279 234.757 66.9063 234.467C62.5155 232.418 52.509 228.704 51.5457 229.429Z" fill="url(#paint21_linear)"/>
<path fill-rule="evenodd" clip-rule="evenodd" d="M51.7207 229.54C52.0459 238.834 63.1844 237.428 67.1284 237.125C68.7588 236.998 67.3281 234.745 66.7229 234.464C62.4351 232.461 52.6614 228.83 51.7207 229.54Z" fill="url(#paint22_linear)"/>
<path fill-rule="evenodd" clip-rule="evenodd" d="M51.8977 229.654C52.2127 238.724 63.0878 237.351 66.9393 237.058C68.5285 236.936 67.1328 234.736 66.542 234.457C62.355 232.504 52.8158 228.96 51.8977 229.654Z" fill="url(#paint23_linear)"/>
<path fill-rule="evenodd" clip-rule="evenodd" d="M52.0747 229.766C52.3814 238.615 62.9889 237.277 66.7456 236.989C68.2957 236.869 66.9369 234.724 66.3584 234.452C62.2744 232.545 52.9701 229.09 52.0747 229.766Z" fill="url(#paint24_linear)"/>
<path fill-rule="evenodd" clip-rule="evenodd" d="M52.2517 229.877C52.5523 238.503 62.8922 237.197 66.5544 236.919C68.0653 236.801 66.7395 234.709 66.1754 234.445C62.1942 232.588 53.1245 229.22 52.2517 229.877Z" fill="url(#paint25_linear)"/>
<path fill-rule="evenodd" clip-rule="evenodd" d="M52.4268 229.989C52.7191 238.392 62.7934 237.123 66.3629 236.849C67.8368 236.737 66.5439 234.697 65.9942 234.44C62.116 232.629 53.2769 229.346 52.4268 229.989Z" fill="url(#paint26_linear)"/>
<path fill-rule="evenodd" clip-rule="evenodd" d="M52.6035 230.102C52.8897 238.284 62.6966 237.046 66.1714 236.782C67.6041 236.672 66.3465 234.685 65.8133 234.435C62.0359 232.672 53.431 229.476 52.6035 230.102Z" fill="url(#paint27_linear)"/>
<path fill-rule="evenodd" clip-rule="evenodd" d="M52.7788 230.216C53.0567 238.174 62.5978 236.97 65.9778 236.713C67.3734 236.605 66.1485 234.674 65.6298 234.431C61.9554 232.716 53.5857 229.606 52.7788 230.216Z" fill="#F2C642"/>
<path fill-rule="evenodd" clip-rule="evenodd" d="M79.387 236.449C79.4714 234.635 80.2905 234.51 81.1613 232.526C81.8982 230.846 81.1408 229.068 82.8308 228.787C84.2553 228.55 84.461 228.303 86.1264 228.24C88.2281 234.654 80.8115 237.603 79.387 236.449Z" fill="url(#paint28_linear)"/>
<path fill-rule="evenodd" clip-rule="evenodd" d="M79.457 236.384C79.5394 234.599 80.3463 234.479 81.2026 232.526C81.9272 230.873 81.182 229.123 82.8432 228.85C84.247 228.615 84.4486 228.372 86.0851 228.312C88.1538 234.618 80.8609 237.519 79.457 236.384Z" fill="url(#paint29_linear)"/>
<path fill-rule="evenodd" clip-rule="evenodd" d="M79.5291 236.319C79.6093 234.565 80.4019 234.446 81.2438 232.526C81.9581 230.901 81.2231 229.178 82.8575 228.91C84.2346 228.682 84.4345 228.442 86.0442 228.382C88.0821 234.582 80.9082 237.433 79.5291 236.319Z" fill="url(#paint30_linear)"/>
<path fill-rule="evenodd" clip-rule="evenodd" d="M79.5989 236.254C79.6792 234.529 80.4595 234.411 81.287 232.523C81.9889 230.925 81.2664 229.233 82.8741 228.969C84.2286 228.744 84.4262 228.509 86.0051 228.449C88.008 234.545 80.9554 237.348 79.5989 236.254Z" fill="url(#paint31_linear)"/>
<path fill-rule="evenodd" clip-rule="evenodd" d="M79.6709 236.187C79.7491 234.493 80.515 234.378 81.3301 232.521C82.0177 230.951 81.3095 229.289 82.8883 229.027C84.2202 228.807 84.4136 228.576 85.9678 228.519C87.9337 234.51 81.0028 237.265 79.6709 236.187Z" fill="url(#paint32_linear)"/>
<path fill-rule="evenodd" clip-rule="evenodd" d="M79.7429 236.12C79.8191 234.457 80.5726 234.342 81.3713 232.521C82.0506 230.978 81.3528 229.344 82.9029 229.09C84.2122 228.874 84.4015 228.643 85.929 228.588C87.862 234.474 81.0522 237.181 79.7429 236.12Z" fill="url(#paint33_linear)"/>
<path fill-rule="evenodd" clip-rule="evenodd" d="M79.813 236.055C79.8871 234.419 80.6283 234.308 81.4126 232.518C82.0775 231.002 81.392 229.399 82.9152 229.147C84.1997 228.936 84.387 228.711 85.8856 228.656C87.7855 234.438 81.0975 237.096 79.813 236.055Z" fill="url(#paint34_linear)"/>
<path fill-rule="evenodd" clip-rule="evenodd" d="M79.885 235.99C79.9591 234.385 80.6859 234.277 81.4578 232.518C82.1083 231.031 81.437 229.457 82.9336 229.21C84.1955 229.001 84.3787 228.78 85.8505 228.728C87.7135 234.402 81.1469 237.012 79.885 235.99Z" fill="url(#paint35_linear)"/>
<path fill-rule="evenodd" clip-rule="evenodd" d="M79.957 235.926C80.0291 234.349 80.7414 234.241 81.4989 232.519C82.1412 231.057 81.4803 229.512 82.9501 229.27C84.1893 229.066 84.3664 228.85 85.8135 228.795C87.6394 234.366 81.1942 236.926 79.957 235.926Z" fill="url(#paint36_linear)"/>
<path fill-rule="evenodd" clip-rule="evenodd" d="M80.0271 235.861C80.0971 234.313 80.799 234.21 81.54 232.516C82.1679 231.083 81.5216 229.567 82.9605 229.327C84.175 229.125 84.352 228.914 85.7683 228.861C87.5653 234.327 81.2416 236.842 80.0271 235.861Z" fill="url(#paint37_linear)"/>
<path fill-rule="evenodd" clip-rule="evenodd" d="M80.0972 235.794C80.1672 234.277 80.8525 234.174 81.5812 232.514C82.1967 231.108 81.5627 229.62 82.9748 229.387C84.1667 229.188 84.3396 228.984 85.7291 228.932C87.4912 234.292 81.289 236.758 80.0972 235.794Z" fill="url(#paint38_linear)"/>
<path fill-rule="evenodd" clip-rule="evenodd" d="M80.1694 235.729C80.2374 234.242 80.9103 234.141 81.6245 232.514C82.2276 231.134 81.6061 229.678 82.9935 229.45C84.1606 229.255 84.3294 229.051 85.6941 229.001C87.419 234.256 81.3386 236.675 80.1694 235.729Z" fill="url(#paint39_linear)"/>
<path fill-rule="evenodd" clip-rule="evenodd" d="M80.239 235.664C80.3069 234.205 80.9678 234.107 81.6635 232.513C82.2564 231.163 81.6471 229.735 83.0036 229.509C84.1502 229.32 84.315 229.121 85.6509 229.07C87.3451 234.219 81.3856 236.59 80.239 235.664Z" fill="url(#paint40_linear)"/>
<path fill-rule="evenodd" clip-rule="evenodd" d="M80.3132 235.599C80.3791 234.171 81.0234 234.073 81.7089 232.511C82.2894 231.189 81.6926 229.788 83.0224 229.57C84.1443 229.382 84.307 229.188 85.6162 229.14C87.2713 234.184 81.4352 236.506 80.3132 235.599Z" fill="url(#paint41_linear)"/>
<path fill-rule="evenodd" clip-rule="evenodd" d="M80.3833 235.532C80.4471 234.133 81.081 234.039 81.7521 232.509C82.3202 231.213 81.7356 229.843 83.0386 229.627C84.1379 229.445 84.2944 229.255 85.5769 229.207C87.1969 234.147 81.4826 236.42 80.3833 235.532Z" fill="url(#paint42_linear)"/>
<path fill-rule="evenodd" clip-rule="evenodd" d="M80.4531 235.467C80.5169 234.099 81.1366 234.006 81.7913 232.509C82.3491 231.242 81.7747 229.901 83.049 229.69C84.1236 229.512 84.2801 229.325 85.5338 229.279C87.123 234.112 81.5277 236.336 80.4531 235.467Z" fill="url(#paint43_linear)"/>
<path fill-rule="evenodd" clip-rule="evenodd" d="M80.5254 235.4C80.5871 234.061 81.1944 233.972 81.8345 232.506C82.378 231.266 81.8181 229.954 83.0655 229.747C84.1174 229.572 84.2675 229.392 85.4964 229.344C87.0505 234.076 81.5773 236.252 80.5254 235.4Z" fill="url(#paint44_linear)"/>
<path fill-rule="evenodd" clip-rule="evenodd" d="M80.5952 235.335C80.6549 234.027 81.2479 233.939 81.8778 232.506C82.4089 231.292 81.8613 230.008 83.08 229.809C84.1093 229.638 84.2576 229.459 85.4577 229.413C86.977 234.04 81.6245 236.168 80.5952 235.335Z" fill="url(#paint45_linear)"/>
<path fill-rule="evenodd" clip-rule="evenodd" d="M80.6675 235.271C80.7272 233.989 81.3057 233.905 81.9191 232.504C82.4378 231.319 81.9024 230.064 83.0943 229.867C84.1009 229.701 84.245 229.526 85.4183 229.483C86.9024 234.004 81.6741 236.084 80.6675 235.271Z" fill="url(#paint46_linear)"/>
<path fill-rule="evenodd" clip-rule="evenodd" d="M80.7375 235.205C80.7952 233.955 81.3613 233.871 81.9603 232.504C82.4687 231.345 81.9438 230.121 83.1089 229.929C84.0929 229.766 84.2329 229.596 85.3795 229.553C86.8287 233.967 81.7195 236 80.7375 235.205Z" fill="url(#paint47_linear)"/>
<path fill-rule="evenodd" clip-rule="evenodd" d="M80.8091 235.138C80.8647 233.917 81.4165 233.838 82.0032 232.502C82.4994 231.372 81.9887 230.174 83.125 229.987C84.0823 229.831 84.2224 229.663 85.3402 229.62C86.7565 233.931 81.7684 235.916 80.8091 235.138Z" fill="url(#paint48_linear)"/>
<path fill-rule="evenodd" clip-rule="evenodd" d="M80.8813 235.074C80.9369 233.884 81.4764 233.805 82.0466 232.502C82.5304 231.398 82.0322 230.232 83.1397 230.049C84.0764 229.896 84.21 229.733 85.3011 229.692C86.6824 233.896 81.8159 235.83 80.8813 235.074Z" fill="#F5CD52"/>
<path fill-rule="evenodd" clip-rule="evenodd" d="M58.1699 192.092C58.0114 194.847 58.596 230.527 58.0875 230.892C56.4016 231.127 51.4984 230.035 49.5923 229.466C48.4848 221.02 47.9844 200.975 49.728 193.645C50.2611 191.397 50.5782 191.519 51.1628 191.121C52.7931 191.788 55.0822 192.018 58.1699 192.092Z" fill="url(#paint49_linear)"/>
<path fill-rule="evenodd" clip-rule="evenodd" d="M66.8917 185.344C76.507 184.984 84.2903 184.252 84.2759 183.712L84.1316 178.529L49.3101 179.842L49.4543 185.027C49.4666 185.564 57.2744 185.708 66.8917 185.344Z" fill="#402515"/>
<path fill-rule="evenodd" clip-rule="evenodd" d="M51.2698 185.391L51.1155 180.105L59.2548 179.834L59.4133 185.537C55.8851 185.573 53.0092 185.525 51.2698 185.391Z" fill="url(#paint50_linear)"/>
<path fill-rule="evenodd" clip-rule="evenodd" d="M77.3389 178.529L83.076 178.311L83.2366 184.089C82.1044 184.305 80.0973 184.535 77.5118 184.744L77.3389 178.529Z" fill="url(#paint51_linear)"/>
<path fill-rule="evenodd" clip-rule="evenodd" d="M66.6983 178.433C76.3135 178.07 84.1173 178.111 84.1296 178.529C84.142 178.942 76.3547 179.573 66.7395 179.935C57.1243 180.297 49.3205 180.254 49.3081 179.841C49.2978 179.429 57.083 178.797 66.6983 178.433Z" fill="url(#paint52_linear)"/>
<path fill-rule="evenodd" clip-rule="evenodd" d="M73.0181 179.649C75.8567 179.493 78.337 179.318 80.2288 179.148L80.2082 178.416L72.9912 178.687L73.0181 179.649Z" fill="url(#paint53_linear)"/>
<path fill-rule="evenodd" clip-rule="evenodd" d="M56.6055 180.18C58.1885 180.165 59.967 180.137 61.8835 180.091L61.8629 179.369L56.5869 179.568L56.6055 180.18Z" fill="url(#paint54_linear)"/>
<path fill-rule="evenodd" clip-rule="evenodd" d="M51.5067 178.582L81.8159 177.437C81.8283 177.437 81.8365 177.447 81.8365 177.459L81.8674 178.565C81.8674 178.577 81.8591 178.589 81.8488 178.589L51.511 179.736C51.5007 179.736 50.671 179.508 50.6812 179.496C50.7636 179.398 51.3461 178.587 51.5067 178.582Z" fill="#402515"/>
<path fill-rule="evenodd" clip-rule="evenodd" d="M51.5067 178.582L51.5665 178.58L52.2437 178.719L51.5994 179.731L51.5109 179.736C51.5007 179.736 50.671 179.508 50.6812 179.496C50.7636 179.398 51.3461 178.587 51.5067 178.582Z" fill="#9D8D7D"/>
<path fill-rule="evenodd" clip-rule="evenodd" d="M81.9476 177.432H81.89L81.3013 177.643L81.923 178.586L82.0114 178.584C82.0217 178.584 82.8348 178.293 82.8266 178.284C82.734 178.193 82.1082 177.43 81.9476 177.432Z" fill="#9D8D7D"/>
<path fill-rule="evenodd" clip-rule="evenodd" d="M66.6717 177.461C75.093 177.144 81.929 177.142 81.9372 177.456C81.9455 177.768 75.1259 178.282 66.7046 178.601C58.2833 178.918 51.449 178.92 51.4387 178.608C51.4284 178.294 58.2503 177.78 66.6717 177.461Z" fill="url(#paint55_linear)"/>
<path d="M82.0851 178.623C82.0776 178.351 75.2439 178.387 66.8215 178.702C58.3992 179.017 51.5776 179.493 51.5851 179.765C51.5926 180.036 58.4263 180.001 66.8486 179.686C75.271 179.37 82.0926 178.894 82.0851 178.623Z" fill="#402515"/>
<path fill-rule="evenodd" clip-rule="evenodd" d="M51.9798 178.736C51.0432 178.81 50.9919 179.487 50.7511 179.52C50.7243 179.643 49.5673 179.578 49.5364 179.852C49.8637 180.02 53.5362 180.089 54.0303 179.875C52.5255 179.835 52.1569 179.732 51.7946 179.633C51.7905 179.489 52.0477 179.081 52.2804 178.988C52.6468 178.851 53.073 178.923 53.4744 178.812C52.7704 178.757 52.301 178.714 51.9798 178.736Z" fill="url(#paint56_linear)"/>
<path fill-rule="evenodd" clip-rule="evenodd" d="M81.5196 177.624C82.4007 177.636 82.5488 178.306 82.7876 178.323C82.8226 178.443 83.9734 178.284 84.0208 178.555C83.7037 178.747 80.0415 179.091 79.5371 178.916C81.0378 178.762 81.3981 178.63 81.7563 178.503C81.7522 178.361 81.4721 177.97 81.2354 177.898C80.8628 177.79 80.4242 177.869 80.0166 177.79C80.7145 177.682 81.1964 177.622 81.5196 177.624Z" fill="url(#paint57_linear)"/>
<path d="M73.1475 220.926C72.3777 221.522 71.5172 221.989 70.5744 222.297C68.1413 223.086 65.6648 222.647 63.6351 221.277C61.6507 219.948 60.0905 217.743 59.4277 214.969C58.0876 209.355 60.8975 203.536 65.7165 201.974C70.5292 200.41 75.5208 203.69 76.865 209.304C77.9416 213.824 76.3258 218.472 73.1475 220.926Z" fill="white"/>
<defs>
<linearGradient id="paint0_linear" x1="58.9339" y1="240.178" x2="68.0872" y2="239.924" gradientUnits="userSpaceOnUse">
<stop stop-color="#F2C642"/>
<stop offset="0.52" stop-color="#F7DF8F"/>
<stop offset="1" stop-color="#F5CD52"/>
</linearGradient>
<linearGradient id="paint1_linear" x1="68.5937" y1="239.366" x2="66.4935" y2="183.644" gradientUnits="userSpaceOnUse">
<stop stop-color="#ECBE24"/>
<stop offset="1" stop-color="#E89C23"/>
</linearGradient>
<linearGradient id="paint2_linear" x1="52.1322" y1="187.33" x2="55.3166" y2="187.241" gradientUnits="userSpaceOnUse">
<stop offset="0.23" stop-color="#F5D590"/>
<stop offset="0.77" stop-color="#EAB423"/>
</linearGradient>
<linearGradient id="paint3_linear" x1="81.9279" y1="186.199" x2="79.2139" y2="186.274" gradientUnits="userSpaceOnUse">
<stop offset="0.15" stop-color="#F5D590"/>
<stop offset="0.85" stop-color="#EAB423"/>
</linearGradient>
<linearGradient id="paint4_linear" x1="52.0808" y1="186.922" x2="60.3525" y2="186.692" gradientUnits="userSpaceOnUse">
<stop stop-color="#F5D590"/>
<stop offset="1" stop-color="#EAB423"/>
</linearGradient>
<linearGradient id="paint5_linear" x1="80.4682" y1="186.103" x2="66.7657" y2="186.484" gradientUnits="userSpaceOnUse">
<stop offset="0.08" stop-color="#F5D590"/>
<stop offset="0.92" stop-color="#EDBD45"/>
</linearGradient>
<linearGradient id="paint6_linear" x1="87.3299" y1="207.776" x2="77.8461" y2="208.039" gradientUnits="userSpaceOnUse">
<stop offset="0.08" stop-color="#F5D590"/>
<stop offset="0.92" stop-color="#EDBD45"/>
</linearGradient>
<linearGradient id="paint7_linear" x1="60.2294" y1="238.68" x2="59.8026" y2="227.355" gradientUnits="userSpaceOnUse">
<stop stop-color="#ECBE24"/>
<stop offset="1" stop-color="#EBB823"/>
</linearGradient>
<linearGradient id="paint8_linear" x1="60.0366" y1="238.604" x2="59.6335" y2="227.501" gradientUnits="userSpaceOnUse">
<stop stop-color="#EDBE26"/>
<stop offset="1" stop-color="#ECB924"/>
</linearGradient>
<linearGradient id="paint9_linear" x1="60.3219" y1="238.413" x2="59.9411" y2="227.526" gradientUnits="userSpaceOnUse">
<stop stop-color="#EDBE27"/>
<stop offset="1" stop-color="#ECB926"/>
</linearGradient>
<linearGradient id="paint10_linear" x1="60.1351" y1="238.344" x2="59.7775" y2="227.677" gradientUnits="userSpaceOnUse">
<stop stop-color="#EDBF28"/>
<stop offset="1" stop-color="#ECBA27"/>
</linearGradient>
<linearGradient id="paint11_linear" x1="59.9477" y1="238.279" x2="59.6129" y2="227.83" gradientUnits="userSpaceOnUse">
<stop stop-color="#EDBF2A"/>
<stop offset="1" stop-color="#EDBA29"/>
</linearGradient>
<linearGradient id="paint12_linear" x1="60.2243" y1="238.077" x2="59.9112" y2="227.846" gradientUnits="userSpaceOnUse">
<stop stop-color="#EEC02B"/>
<stop offset="1" stop-color="#EDBB2A"/>
</linearGradient>
<linearGradient id="paint13_linear" x1="60.0368" y1="238.017" x2="59.7461" y2="228.006" gradientUnits="userSpaceOnUse">
<stop stop-color="#EEC02D"/>
<stop offset="1" stop-color="#EDBC2C"/>
</linearGradient>
<linearGradient id="paint14_linear" x1="59.8527" y1="237.961" x2="59.584" y2="228.168" gradientUnits="userSpaceOnUse">
<stop stop-color="#EEC02E"/>
<stop offset="1" stop-color="#EEBC2D"/>
</linearGradient>
<linearGradient id="paint15_linear" x1="60.1181" y1="237.75" x2="59.8702" y2="228.172" gradientUnits="userSpaceOnUse">
<stop stop-color="#EEC130"/>
<stop offset="1" stop-color="#EEBD2F"/>
</linearGradient>
<linearGradient id="paint16_linear" x1="59.9369" y1="237.699" x2="59.7106" y2="228.339" gradientUnits="userSpaceOnUse">
<stop stop-color="#EFC131"/>
<stop offset="1" stop-color="#EEBE30"/>
</linearGradient>
<linearGradient id="paint17_linear" x1="59.7546" y1="237.646" x2="59.5494" y2="228.501" gradientUnits="userSpaceOnUse">
<stop stop-color="#EFC132"/>
<stop offset="1" stop-color="#EEBE32"/>
</linearGradient>
<linearGradient id="paint18_linear" x1="60.1607" y1="237.931" x2="59.9754" y2="229.001" gradientUnits="userSpaceOnUse">
<stop stop-color="#EFC234"/>
<stop offset="1" stop-color="#EFBF33"/>
</linearGradient>
<linearGradient id="paint19_linear" x1="59.9895" y1="237.882" x2="59.8248" y2="229.17" gradientUnits="userSpaceOnUse">
<stop stop-color="#F0C235"/>
<stop offset="1" stop-color="#EFC035"/>
</linearGradient>
<linearGradient id="paint20_linear" x1="59.8178" y1="237.837" x2="59.6732" y2="229.338" gradientUnits="userSpaceOnUse">
<stop stop-color="#F0C337"/>
<stop offset="1" stop-color="#EFC036"/>
</linearGradient>
<linearGradient id="paint21_linear" x1="60.0658" y1="237.597" x2="59.9401" y2="229.315" gradientUnits="userSpaceOnUse">
<stop stop-color="#F0C338"/>
<stop offset="1" stop-color="#F0C138"/>
</linearGradient>
<linearGradient id="paint22_linear" x1="59.8949" y1="237.555" x2="59.7887" y2="229.488" gradientUnits="userSpaceOnUse">
<stop stop-color="#F0C33A"/>
<stop offset="1" stop-color="#F0C239"/>
</linearGradient>
<linearGradient id="paint23_linear" x1="59.7309" y1="237.519" x2="59.6437" y2="229.666" gradientUnits="userSpaceOnUse">
<stop stop-color="#F1C43B"/>
<stop offset="1" stop-color="#F0C23B"/>
</linearGradient>
<linearGradient id="paint24_linear" x1="59.9681" y1="237.27" x2="59.8987" y2="229.63" gradientUnits="userSpaceOnUse">
<stop stop-color="#F1C43D"/>
<stop offset="1" stop-color="#F1C33C"/>
</linearGradient>
<linearGradient id="paint25_linear" x1="59.8035" y1="237.239" x2="59.7523" y2="229.812" gradientUnits="userSpaceOnUse">
<stop stop-color="#F1C43E"/>
<stop offset="1" stop-color="#F1C43E"/>
</linearGradient>
<linearGradient id="paint26_linear" x1="59.6398" y1="237.213" x2="59.6064" y2="229.997" gradientUnits="userSpaceOnUse">
<stop stop-color="#F1C53F"/>
<stop offset="1" stop-color="#F1C43F"/>
</linearGradient>
<linearGradient id="paint27_linear" x1="59.8627" y1="236.951" x2="59.8459" y2="229.946" gradientUnits="userSpaceOnUse">
<stop stop-color="#F2C541"/>
<stop offset="1" stop-color="#F2C541"/>
</linearGradient>
<linearGradient id="paint28_linear" x1="83.0339" y1="236.597" x2="82.7242" y2="228.377" gradientUnits="userSpaceOnUse">
<stop stop-color="#ECBE24"/>
<stop offset="1" stop-color="#EBB823"/>
</linearGradient>
<linearGradient id="paint29_linear" x1="82.8179" y1="236.527" x2="82.5227" y2="228.433" gradientUnits="userSpaceOnUse">
<stop stop-color="#EDBE26"/>
<stop offset="1" stop-color="#ECB925"/>
</linearGradient>
<linearGradient id="paint30_linear" x1="83.0971" y1="236.339" x2="82.816" y2="228.369" gradientUnits="userSpaceOnUse">
<stop stop-color="#EDBF28"/>
<stop offset="1" stop-color="#ECBA27"/>
</linearGradient>
<linearGradient id="paint31_linear" x1="82.8847" y1="236.279" x2="82.6185" y2="228.439" gradientUnits="userSpaceOnUse">
<stop stop-color="#EEC02B"/>
<stop offset="1" stop-color="#EDBB29"/>
</linearGradient>
<linearGradient id="paint32_linear" x1="83.1576" y1="236.084" x2="82.9055" y2="228.373" gradientUnits="userSpaceOnUse">
<stop stop-color="#EEC12D"/>
<stop offset="1" stop-color="#EDBC2C"/>
</linearGradient>
<linearGradient id="paint33_linear" x1="82.9484" y1="236.026" x2="82.7111" y2="228.441" gradientUnits="userSpaceOnUse">
<stop stop-color="#EEC12F"/>
<stop offset="1" stop-color="#EEBD2E"/>
</linearGradient>
<linearGradient id="paint34_linear" x1="83.3355" y1="236.379" x2="83.1123" y2="228.918" gradientUnits="userSpaceOnUse">
<stop stop-color="#EFC231"/>
<stop offset="1" stop-color="#EEBE30"/>
</linearGradient>
<linearGradient id="paint35_linear" x1="83.1343" y1="236.324" x2="82.9261" y2="228.993" gradientUnits="userSpaceOnUse">
<stop stop-color="#EFC333"/>
<stop offset="1" stop-color="#EFBF32"/>
</linearGradient>
<linearGradient id="paint36_linear" x1="82.9358" y1="236.271" x2="82.7425" y2="229.071" gradientUnits="userSpaceOnUse">
<stop stop-color="#F0C336"/>
<stop offset="1" stop-color="#EFC035"/>
</linearGradient>
<linearGradient id="paint37_linear" x1="83.1903" y1="236.064" x2="83.0111" y2="228.985" gradientUnits="userSpaceOnUse">
<stop stop-color="#F0C438"/>
<stop offset="1" stop-color="#EFC137"/>
</linearGradient>
<linearGradient id="paint38_linear" x1="82.996" y1="236.021" x2="82.832" y2="229.073" gradientUnits="userSpaceOnUse">
<stop stop-color="#F0C53A"/>
<stop offset="1" stop-color="#F0C239"/>
</linearGradient>
<linearGradient id="paint39_linear" x1="83.2476" y1="235.804" x2="83.0979" y2="228.985" gradientUnits="userSpaceOnUse">
<stop stop-color="#F1C53C"/>
<stop offset="1" stop-color="#F0C33B"/>
</linearGradient>
<linearGradient id="paint40_linear" x1="83.051" y1="235.772" x2="82.9163" y2="229.079" gradientUnits="userSpaceOnUse">
<stop stop-color="#F1C63E"/>
<stop offset="1" stop-color="#F1C43E"/>
</linearGradient>
<linearGradient id="paint41_linear" x1="83.2914" y1="235.55" x2="83.1711" y2="228.984" gradientUnits="userSpaceOnUse">
<stop stop-color="#F2C740"/>
<stop offset="1" stop-color="#F1C540"/>
</linearGradient>
<linearGradient id="paint42_linear" x1="83.096" y1="235.524" x2="82.9908" y2="229.085" gradientUnits="userSpaceOnUse">
<stop stop-color="#F2C843"/>
<stop offset="1" stop-color="#F2C642"/>
</linearGradient>
<linearGradient id="paint43_linear" x1="82.9035" y1="235.502" x2="82.8135" y2="229.191" gradientUnits="userSpaceOnUse">
<stop stop-color="#F2C845"/>
<stop offset="1" stop-color="#F2C744"/>
</linearGradient>
<linearGradient id="paint44_linear" x1="83.3171" y1="235.758" x2="83.2416" y2="229.574" gradientUnits="userSpaceOnUse">
<stop stop-color="#F3C947"/>
<stop offset="1" stop-color="#F3C847"/>
</linearGradient>
<linearGradient id="paint45_linear" x1="83.1355" y1="235.736" x2="83.0752" y2="229.68" gradientUnits="userSpaceOnUse">
<stop stop-color="#F3CA49"/>
<stop offset="1" stop-color="#F3C949"/>
</linearGradient>
<linearGradient id="paint46_linear" x1="83.3582" y1="235.497" x2="83.3126" y2="229.567" gradientUnits="userSpaceOnUse">
<stop stop-color="#F4CA4B"/>
<stop offset="1" stop-color="#F3CA4B"/>
</linearGradient>
<linearGradient id="paint47_linear" x1="83.1803" y1="235.485" x2="83.15" y2="229.685" gradientUnits="userSpaceOnUse">
<stop stop-color="#F4CB4D"/>
<stop offset="1" stop-color="#F4CB4D"/>
</linearGradient>
<linearGradient id="paint48_linear" x1="83.3899" y1="235.236" x2="83.3744" y2="229.563" gradientUnits="userSpaceOnUse">
<stop stop-color="#F4CC50"/>
<stop offset="1" stop-color="#F4CC50"/>
</linearGradient>
<linearGradient id="paint49_linear" x1="48.5448" y1="211.243" x2="58.6926" y2="210.962" gradientUnits="userSpaceOnUse">
<stop stop-color="#F5D590"/>
<stop offset="1" stop-color="#EAB423"/>
</linearGradient>
<linearGradient id="paint50_linear" x1="51.197" y1="182.972" x2="59.3359" y2="182.746" gradientUnits="userSpaceOnUse">
<stop stop-color="#A28D7C"/>
<stop offset="1" stop-color="#52311D"/>
</linearGradient>
<linearGradient id="paint51_linear" x1="77.4239" y1="181.634" x2="83.1628" y2="181.475" gradientUnits="userSpaceOnUse">
<stop stop-color="#52311D"/>
<stop offset="1" stop-color="#CBC2B1"/>
</linearGradient>
<linearGradient id="paint52_linear" x1="49.3092" y1="179.843" x2="84.1395" y2="178.876" gradientUnits="userSpaceOnUse">
<stop stop-color="#7F6453"/>
<stop offset="1" stop-color="#8C7665"/>
</linearGradient>
<linearGradient id="paint53_linear" x1="73.0021" y1="179.169" x2="80.2221" y2="178.969" gradientUnits="userSpaceOnUse">
<stop stop-color="#7F6453"/>
<stop offset="0.5" stop-color="#CBC2B1"/>
<stop offset="1" stop-color="#836A59"/>
</linearGradient>
<linearGradient id="paint54_linear" x1="56.5965" y1="179.927" x2="61.8741" y2="179.781" gradientUnits="userSpaceOnUse">
<stop stop-color="#7F6453"/>
<stop offset="0.5" stop-color="#CBC2B1"/>
<stop offset="1" stop-color="#836A59"/>
</linearGradient>
<linearGradient id="paint55_linear" x1="51.4387" y1="178.606" x2="81.945" y2="177.757" gradientUnits="userSpaceOnUse">
<stop stop-color="#CFC2AC"/>
<stop offset="0.5" stop-color="#CBC2B1"/>
<stop offset="1" stop-color="#CEC1AA"/>
</linearGradient>
<linearGradient id="paint56_linear" x1="51.6585" y1="180.265" x2="52.06" y2="178.557" gradientUnits="userSpaceOnUse">
<stop offset="0.08" stop-color="#7F6453"/>
<stop offset="0.5" stop-color="#D9CDB7"/>
<stop offset="0.92" stop-color="#B8AD9C"/>
</linearGradient>
<linearGradient id="paint57_linear" x1="81.9861" y1="177.504" x2="81.8006" y2="179.047" gradientUnits="userSpaceOnUse">
<stop offset="0.05" stop-color="#7F6453"/>
<stop offset="0.5" stop-color="#D9CDB7"/>
<stop offset="0.95" stop-color="#B8AD9C"/>
</linearGradient>
</defs>
</svg>
