<svg width="158" height="162" viewBox="0 0 158 162" fill="none" xmlns="http://www.w3.org/2000/svg">
<path d="M151.102 114.106C168.854 73.3274 151.165 25.4462 111.565 7.14546C71.9762 -11.1481 25.4748 7.07831 7.71118 47.8597C-10.0525 88.6387 7.65302 136.52 47.2438 154.818C86.8368 173.114 133.338 154.885 151.102 114.106Z" fill="url(#paint0_linear)"/>
<path d="M67.4659 113.569C66.1518 113.569 64.8913 113.003 63.9943 112.005L40.5757 85.8625C38.8049 83.8877 38.9284 80.8142 40.8436 78.9906C42.7635 77.1766 45.7481 77.2844 47.5212 79.2616L67.4659 101.529L110.843 53.1192C112.621 51.1445 115.613 51.0341 117.528 52.8433C119.439 54.6621 119.562 57.7479 117.791 59.7251L70.9467 112.002C70.0543 113.003 68.7847 113.569 67.4659 113.569Z" fill="white"/>
<defs>
<linearGradient id="paint0_linear" x1="0.808908" y1="80.9831" x2="158.002" y2="80.9831" gradientUnits="userSpaceOnUse">
<stop stop-color="#F7CA6A"/>
<stop offset="0.5708" stop-color="#F6BA51"/>
<stop offset="1" stop-color="#F6B143"/>
</linearGradient>
</defs>
</svg>
