<svg width="401" height="401" viewBox="0 0 401 401" fill="none" xmlns="http://www.w3.org/2000/svg">
<path d="M400.294 200.779C400.294 311.239 310.745 400.779 200.292 400.779C89.8343 400.779 0.294189 311.239 0.294189 200.779C0.294189 90.3215 89.8343 0.779297 200.292 0.779297C310.745 0.779297 400.294 90.3194 400.294 200.779Z" fill="white"/>
<path d="M325.252 324.634C323.402 324.634 321.548 323.949 320.103 322.571C317.124 319.727 317.013 315.004 319.858 312.025C348.627 281.885 364.47 242.378 364.47 200.783C364.47 142.492 332.845 88.5676 281.934 60.049C278.34 58.0355 277.058 53.4898 279.072 49.8944C281.083 46.299 285.629 45.0191 289.224 47.0326C344.839 78.1855 379.389 137.1 379.389 200.783C379.389 246.233 362.078 289.398 330.649 322.327C329.186 323.86 327.221 324.634 325.252 324.634Z" fill="#CBCAE5"/>
<path d="M282.664 58.7433C259.176 45.5928 232.129 38.0981 203.277 38.0981C113.429 38.2597 40.7536 110.933 40.5941 200.781C40.5941 244.349 57.7289 283.835 85.6138 313.055C87.8888 315.438 87.7976 319.214 85.4184 321.492C83.0307 323.769 79.2566 323.679 76.9837 321.296C47.0726 289.979 28.6515 247.515 28.6515 200.784C28.6557 104.337 106.833 26.1658 203.277 26.1637C234.202 26.1594 263.293 34.2135 288.498 48.3335C291.373 49.9451 292.398 53.5831 290.79 56.4578C289.175 59.3302 285.537 60.355 282.664 58.7433Z" fill="url(#paint0_linear)"/>
<path d="M140.552 166.671C140.05 164.509 138.826 162.997 136.876 162.138C135.788 161.666 134.58 161.43 133.247 161.43C130.698 161.43 128.599 162.391 126.964 164.313C125.325 166.237 124.502 169.127 124.502 172.988C124.502 176.877 125.391 179.628 127.168 181.244C128.941 182.86 130.963 183.668 133.228 183.668C135.445 183.668 137.263 183.032 138.683 181.758C140.099 180.483 140.975 178.816 141.303 176.751H133.978V171.468H147.167V188.462H142.785L142.121 184.51C140.846 186.006 139.7 187.063 138.683 187.676C136.936 188.745 134.788 189.279 132.239 189.279C128.04 189.279 124.602 187.826 121.923 184.92C119.133 181.999 117.736 178.008 117.736 172.939C117.736 167.815 119.144 163.707 121.967 160.616C124.787 157.524 128.52 155.978 133.16 155.978C137.184 155.978 140.418 156.999 142.859 159.04C145.3 161.081 146.701 163.626 147.062 166.677H140.552V166.671Z" fill="#404041"/>
<path d="M166.001 164.489C166.08 164.496 166.254 164.509 166.528 164.521V170.796C166.141 170.753 165.797 170.724 165.495 170.709C165.195 170.696 164.95 170.687 164.767 170.687C162.301 170.687 160.647 171.489 159.801 173.092C159.331 173.996 159.095 175.384 159.095 177.26V188.454H152.929V165.036H158.772V169.118C159.718 167.558 160.541 166.49 161.242 165.916C162.388 164.957 163.879 164.477 165.711 164.477C165.826 164.479 165.922 164.483 166.001 164.489Z" fill="#404041"/>
<path d="M189.646 185.592C187.669 188.031 184.667 189.251 180.644 189.251C176.621 189.251 173.617 188.031 171.642 185.592C169.664 183.151 168.676 180.215 168.676 176.779C168.676 173.402 169.664 170.477 171.642 168C173.619 165.523 176.621 164.285 180.644 164.285C184.667 164.285 187.671 165.523 189.646 168C191.621 170.477 192.612 173.402 192.612 176.779C192.61 180.215 191.623 183.151 189.646 185.592ZM184.745 182.207C185.704 180.933 186.187 179.124 186.187 176.779C186.187 174.434 185.704 172.628 184.745 171.363C183.786 170.098 182.411 169.465 180.623 169.465C178.834 169.465 177.454 170.098 176.487 171.363C175.52 172.628 175.037 174.434 175.037 176.779C175.037 179.126 175.52 180.935 176.487 182.207C177.454 183.478 178.834 184.116 180.623 184.116C182.411 184.116 183.786 183.481 184.745 182.207Z" fill="#404041"/>
<path d="M210.999 173.438C210.882 172.565 210.593 171.778 210.115 171.076C209.426 170.13 208.359 169.658 206.909 169.658C204.84 169.658 203.424 170.683 202.664 172.731C202.263 173.817 202.063 175.258 202.063 177.059C202.063 178.775 202.263 180.153 202.664 181.195C203.396 183.145 204.774 184.118 206.8 184.118C208.237 184.118 209.254 183.731 209.858 182.957C210.461 182.184 210.829 181.182 210.959 179.949H217.208C217.068 181.811 216.389 183.574 215.186 185.235C213.268 187.914 210.419 189.253 206.647 189.253C202.875 189.253 200.103 188.137 198.325 185.9C196.548 183.666 195.659 180.77 195.659 177.21C195.659 173.192 196.643 170.066 198.608 167.832C200.572 165.597 203.279 164.481 206.734 164.481C209.675 164.481 212.08 165.14 213.953 166.458C215.822 167.776 216.93 170.103 217.274 173.441H210.999V173.438Z" fill="#404041"/>
<path d="M236.724 165.512C238.357 166.244 239.705 167.398 240.768 168.976C241.727 170.366 242.35 171.98 242.633 173.817C242.799 174.893 242.864 176.443 242.837 178.465H225.783C225.879 180.814 226.693 182.46 228.228 183.406C229.166 183.993 230.292 184.286 231.604 184.286C232.999 184.286 234.132 183.929 235.006 183.213C235.484 182.826 235.903 182.288 236.269 181.601H242.518C242.352 182.992 241.595 184.401 240.247 185.834C238.151 188.112 235.215 189.251 231.438 189.251C228.319 189.251 225.57 188.29 223.187 186.37C220.808 184.45 219.615 181.325 219.615 176.994C219.615 172.937 220.691 169.826 222.842 167.662C224.994 165.497 227.784 164.415 231.215 164.415C233.254 164.415 235.089 164.781 236.724 165.512ZM227.565 170.802C226.697 171.693 226.153 172.903 225.932 174.427H236.48C236.367 172.803 235.827 171.57 234.846 170.728C233.871 169.886 232.663 169.465 231.217 169.465C229.644 169.465 228.428 169.911 227.565 170.802Z" fill="#404041"/>
<path d="M258.942 164.489C259.021 164.496 259.2 164.509 259.47 164.521V170.796C259.083 170.753 258.738 170.724 258.441 170.709C258.137 170.696 257.896 170.687 257.709 170.687C255.247 170.687 253.589 171.489 252.747 173.092C252.273 173.996 252.037 175.384 252.037 177.26V188.454H245.871V165.036H251.718V169.118C252.66 167.558 253.482 166.49 254.188 165.916C255.33 164.957 256.821 164.477 258.658 164.477C258.768 164.479 258.864 164.483 258.942 164.489Z" fill="#404041"/>
<path d="M263.984 192.946L264.756 192.991C265.357 193.019 265.932 192.997 266.476 192.925C267.02 192.853 267.477 192.689 267.849 192.432C268.207 192.187 268.538 191.679 268.851 190.905C269.159 190.131 269.291 189.659 269.246 189.487L260.642 165.038H267.452L272.567 182.311L277.4 165.038H283.908L275.882 188.069C274.33 192.508 273.103 195.264 272.2 196.331C271.298 197.396 269.493 197.93 266.78 197.93C266.236 197.93 265.8 197.928 265.468 197.919C265.141 197.913 264.645 197.887 263.986 197.845V192.946H263.984Z" fill="#404041"/>
<path d="M138.126 227.55C136.274 229.098 133.625 229.87 130.187 229.87H123.592V241.256H117.017V209.586H130.614C133.75 209.586 136.249 210.402 138.109 212.035C139.974 213.668 140.907 216.196 140.907 219.619C140.909 223.359 139.98 226.002 138.126 227.55ZM133.076 216.141C132.236 215.439 131.063 215.089 129.555 215.089H123.592V224.412H129.555C131.063 224.412 132.239 224.033 133.076 223.274C133.914 222.515 134.335 221.312 134.335 219.664C134.335 218.018 133.916 216.843 133.076 216.141Z" fill="#404041"/>
<path d="M160.979 218.314C162.612 219.046 163.96 220.2 165.027 221.778C165.986 223.168 166.605 224.782 166.892 226.619C167.058 227.695 167.124 229.245 167.092 231.267H150.037C150.133 233.616 150.952 235.262 152.487 236.208C153.42 236.795 154.547 237.088 155.863 237.088C157.258 237.088 158.391 236.731 159.265 236.014C159.739 235.627 160.158 235.09 160.524 234.403H166.777C166.611 235.793 165.854 237.203 164.506 238.636C162.41 240.913 159.474 242.053 155.693 242.053C152.578 242.053 149.829 241.092 147.446 239.172C145.062 237.252 143.869 234.127 143.869 229.796C143.869 225.739 144.945 222.628 147.097 220.464C149.248 218.299 152.038 217.217 155.472 217.217C157.513 217.217 159.348 217.581 160.979 218.314ZM151.819 223.602C150.956 224.493 150.411 225.703 150.186 227.227H160.738C160.626 225.603 160.082 224.37 159.106 223.528C158.13 222.686 156.918 222.265 155.472 222.265C153.903 222.265 152.687 222.711 151.819 223.602Z" fill="#404041"/>
<path d="M189.076 219.181C190.609 220.449 191.377 222.551 191.377 225.488V241.258H185.102V227.012C185.102 225.781 184.936 224.837 184.613 224.178C184.016 222.974 182.878 222.373 181.201 222.373C179.14 222.373 177.724 223.255 176.957 225.016C176.557 225.947 176.359 227.135 176.359 228.581V241.258H170.238V217.882H176.168V221.299C176.949 220.095 177.692 219.228 178.39 218.699C179.649 217.753 181.239 217.281 183.161 217.281C185.572 217.281 187.541 217.914 189.076 219.181Z" fill="#404041"/>
<path d="M209.488 218.214C210.589 218.837 211.484 219.7 212.171 220.804V209.633H218.384V241.258H212.432V238.013C211.556 239.402 210.559 240.411 209.443 241.043C208.327 241.674 206.938 241.989 205.278 241.989C202.541 241.989 200.237 240.881 198.368 238.668C196.499 236.455 195.565 233.616 195.565 230.151C195.565 226.155 196.488 223.011 198.327 220.719C200.167 218.427 202.629 217.281 205.707 217.281C207.125 217.281 208.382 217.591 209.488 218.214ZM210.991 234.896C211.892 233.608 212.345 231.939 212.345 229.891C212.345 227.025 211.622 224.977 210.175 223.746C209.286 223.002 208.257 222.63 207.081 222.63C205.291 222.63 203.979 223.306 203.139 224.661C202.299 226.015 201.88 227.695 201.88 229.7C201.88 231.864 202.308 233.593 203.16 234.887C204.011 236.184 205.308 236.833 207.038 236.833C208.769 236.833 210.089 236.187 210.991 234.896Z" fill="#404041"/>
<path d="M230.239 215.046H224.031V209.394H230.239V215.046ZM224.031 217.84H230.239V241.258H224.031V217.84Z" fill="#404041"/>
<path d="M255.056 219.181C256.589 220.449 257.356 222.551 257.356 225.488V241.258H251.082V227.012C251.082 225.781 250.916 224.837 250.593 224.178C249.995 222.974 248.858 222.373 247.18 222.373C245.12 222.373 243.704 223.255 242.937 225.016C242.537 225.947 242.339 227.135 242.339 228.581V241.258H236.218V217.882H242.148V221.299C242.928 220.095 243.672 219.228 244.37 218.699C245.628 217.753 247.219 217.281 249.141 217.281C251.55 217.281 253.519 217.914 255.056 219.181Z" fill="#404041"/>
<path d="M274.632 217.816C276.118 218.433 277.324 219.564 278.236 221.212V217.84H284.208V240.054C284.208 243.076 283.702 245.355 282.684 246.886C280.936 249.52 277.585 250.838 272.629 250.838C269.635 250.838 267.192 250.252 265.304 249.076C263.41 247.9 262.364 246.146 262.164 243.811H268.825C268.995 244.526 269.278 245.042 269.665 245.359C270.322 245.918 271.434 246.197 272.995 246.197C275.199 246.197 276.673 245.459 277.421 243.984C277.908 243.04 278.149 241.449 278.149 239.214V237.709C277.564 238.713 276.932 239.465 276.258 239.965C275.042 240.896 273.46 241.362 271.513 241.362C268.502 241.362 266.101 240.305 264.303 238.194C262.504 236.083 261.607 233.221 261.607 229.61C261.607 226.13 262.47 223.204 264.203 220.833C265.936 218.463 268.385 217.278 271.562 217.278C272.737 217.281 273.758 217.459 274.632 217.816ZM276.715 234.607C277.7 233.525 278.193 231.803 278.193 229.44C278.193 227.221 277.723 225.53 276.79 224.369C275.856 223.211 274.606 222.63 273.035 222.63C270.896 222.63 269.418 223.64 268.608 225.66C268.181 226.734 267.964 228.058 267.964 229.634C267.964 230.995 268.192 232.204 268.649 233.265C269.476 235.243 270.958 236.229 273.101 236.229C274.528 236.229 275.731 235.689 276.715 234.607Z" fill="#404041"/>
<defs>
<linearGradient id="paint0_linear" x1="27.146" y1="174.518" x2="293.016" y2="174.518" gradientUnits="userSpaceOnUse">
<stop stop-color="#F7CA6A"/>
<stop offset="0.0694" stop-color="#F7CA65"/>
<stop offset="0.6767" stop-color="#F9C841"/>
<stop offset="1" stop-color="#F9C733"/>
</linearGradient>
</defs>
</svg>
