<svg width="141" height="210" viewBox="0 0 141 210" fill="none" xmlns="http://www.w3.org/2000/svg">
<path d="M70.2185 209.602C108.896 209.602 140.251 205.865 140.251 201.255C140.251 196.645 108.896 192.907 70.2185 192.907C31.5408 192.907 0.186279 196.645 0.186279 201.255C0.186279 205.865 31.5408 209.602 70.2185 209.602Z" fill="white"/>
<path d="M70.2184 209.391C108.49 209.391 139.516 205.747 139.516 201.252C139.516 196.757 108.49 193.113 70.2184 193.113C31.9465 193.113 0.921143 196.757 0.921143 201.252C0.921143 205.747 31.9465 209.391 70.2184 209.391Z" fill="#FEFCF8"/>
<path d="M70.2184 209.185C108.084 209.185 138.781 205.635 138.781 201.255C138.781 196.875 108.084 193.325 70.2184 193.325C32.3524 193.325 1.65601 196.875 1.65601 201.255C1.65601 205.635 32.3524 209.185 70.2184 209.185Z" fill="#FCF8F1"/>
<path d="M70.2186 208.974C107.678 208.974 138.044 205.518 138.044 201.255C138.044 196.992 107.678 193.536 70.2186 193.536C32.7596 193.536 2.39307 196.992 2.39307 201.255C2.39307 205.518 32.7596 208.974 70.2186 208.974Z" fill="#FBF5EB"/>
<path d="M70.2185 208.76C107.272 208.76 137.309 205.399 137.309 201.253C137.309 197.106 107.272 193.745 70.2185 193.745C33.1653 193.745 3.12793 197.106 3.12793 201.253C3.12793 205.399 33.1653 208.76 70.2185 208.76Z" fill="#FAF2E4"/>
<path d="M70.2185 208.552C106.865 208.552 136.572 205.284 136.572 201.253C136.572 197.221 106.865 193.953 70.2185 193.953C33.5723 193.953 3.86475 197.221 3.86475 201.253C3.86475 205.284 33.5723 208.552 70.2185 208.552Z" fill="#F9EEDD"/>
<path d="M70.2184 208.343C106.459 208.343 135.837 205.169 135.837 201.255C135.837 197.34 106.459 194.167 70.2184 194.167C33.9781 194.167 4.59961 197.34 4.59961 201.255C4.59961 205.169 33.9781 208.343 70.2184 208.343Z" fill="#F7EBD6"/>
<path d="M70.2186 208.132C106.053 208.132 135.103 205.053 135.103 201.255C135.103 197.457 106.053 194.378 70.2186 194.378C34.3841 194.378 5.33447 197.457 5.33447 201.255C5.33447 205.053 34.3841 208.132 70.2186 208.132Z" fill="#F6E8CF"/>
<path d="M70.2186 207.92C105.646 207.92 134.366 204.935 134.366 201.252C134.366 197.57 105.646 194.584 70.2186 194.584C34.7912 194.584 6.07153 197.57 6.07153 201.252C6.07153 204.935 34.7912 207.92 70.2186 207.92Z" fill="#F5E4C9"/>
<path d="M70.2185 207.712C105.24 207.712 133.631 204.821 133.631 201.255C133.631 197.689 105.24 194.798 70.2185 194.798C35.1969 194.798 6.8064 197.689 6.8064 201.255C6.8064 204.821 35.1969 207.712 70.2185 207.712Z" fill="#F4E1C2"/>
<path d="M70.2185 207.503C104.833 207.503 132.894 204.706 132.894 201.255C132.894 197.804 104.833 195.007 70.2185 195.007C35.6039 195.007 7.54321 197.804 7.54321 201.255C7.54321 204.706 35.6039 207.503 70.2185 207.503Z" fill="#F2DDBB"/>
<path d="M70.2185 207.289C104.427 207.289 132.159 204.587 132.159 201.252C132.159 197.918 104.427 195.216 70.2185 195.216C36.0097 195.216 8.27808 197.918 8.27808 201.252C8.27808 204.587 36.0097 207.289 70.2185 207.289Z" fill="#F1DAB4"/>
<path d="M70.2185 207.078C104.02 207.078 131.422 204.47 131.422 201.252C131.422 198.035 104.02 195.427 70.2185 195.427C36.4169 195.427 9.01538 198.035 9.01538 201.252C9.01538 204.47 36.4169 207.078 70.2185 207.078Z" fill="#F0D7AE"/>
<path d="M70.2186 206.869C103.615 206.869 130.687 204.355 130.687 201.252C130.687 198.15 103.615 195.635 70.2186 195.635C36.8227 195.635 9.75 198.15 9.75 201.252C9.75 204.355 36.8227 206.869 70.2186 206.869Z" fill="#EFD3A7"/>
<path d="M70.2186 206.658C103.209 206.658 129.952 204.238 129.952 201.253C129.952 198.267 103.209 195.847 70.2186 195.847C37.2286 195.847 10.4851 198.267 10.4851 201.253C10.4851 204.238 37.2286 206.658 70.2186 206.658Z" fill="#EDD0A0"/>
<path d="M70.2186 206.45C102.802 206.45 129.215 204.123 129.215 201.253C129.215 198.382 102.802 196.055 70.2186 196.055C37.6357 196.055 11.2219 198.382 11.2219 201.253C11.2219 204.123 37.6357 206.45 70.2186 206.45Z" fill="#ECCD99"/>
<path d="M70.2185 206.239C102.396 206.239 128.48 204.006 128.48 201.252C128.48 198.499 102.396 196.266 70.2185 196.266C38.0413 196.266 11.9565 198.499 11.9565 201.252C11.9565 204.006 38.0413 206.239 70.2185 206.239Z" fill="#EBC992"/>
<path d="M70.2185 206.032C101.989 206.032 127.743 203.893 127.743 201.255C127.743 198.616 101.989 196.478 70.2185 196.478C38.4485 196.478 12.6938 198.616 12.6938 201.255C12.6938 203.893 38.4485 206.032 70.2185 206.032Z" fill="#EAC68C"/>
<path d="M70.2186 205.819C101.583 205.819 127.009 203.774 127.009 201.252C127.009 198.731 101.583 196.686 70.2186 196.686C38.8543 196.686 13.4285 198.731 13.4285 201.252C13.4285 203.774 38.8543 205.819 70.2186 205.819Z" fill="#E8C385"/>
<path d="M70.2185 205.607C101.176 205.607 126.271 203.658 126.271 201.252C126.271 198.847 101.176 196.897 70.2185 196.897C39.2613 196.897 14.1655 198.847 14.1655 201.252C14.1655 203.658 39.2613 205.607 70.2185 205.607Z" fill="#E7BF7E"/>
<path d="M70.2186 205.401C100.77 205.401 125.537 203.545 125.537 201.255C125.537 198.965 100.77 197.109 70.2186 197.109C39.6673 197.109 14.9006 198.965 14.9006 201.255C14.9006 203.545 39.6673 205.401 70.2186 205.401Z" fill="#E6BC77"/>
<path d="M70.2185 205.188C100.364 205.188 124.802 203.426 124.802 201.252C124.802 199.079 100.364 197.317 70.2185 197.317C40.0729 197.317 15.635 199.079 15.635 201.252C15.635 203.426 40.0729 205.188 70.2185 205.188Z" fill="#E5B970"/>
<path fill-rule="evenodd" clip-rule="evenodd" d="M18.8523 27.2964L16.5186 26.6582L18.0805 25.9336L18.8523 27.2964Z" fill="#EAA42C"/>
<path fill-rule="evenodd" clip-rule="evenodd" d="M117.525 27.2964L119.857 26.6582L118.295 25.9336L117.525 27.2964Z" fill="#EAA42C"/>
<path fill-rule="evenodd" clip-rule="evenodd" d="M68.2979 204.549C98.0968 204.317 108.297 201.586 116.704 199.1C127.813 194.618 129.098 177.877 130.94 167.334C134.409 147.503 134.11 62.88 128.641 44.462C126.807 38.2859 120.825 36.5943 118.694 32.8656L118.297 20.0623H68.1991H18.1033L17.706 32.8656C15.5755 36.5919 9.59343 38.2835 7.75724 44.462C2.2878 62.88 1.83917 147.503 5.30774 167.334C7.15216 177.88 8.58491 194.618 19.6947 199.1C27.5005 201.468 38.993 204.549 68.2979 204.549Z" fill="#E89E23"/>
<path fill-rule="evenodd" clip-rule="evenodd" d="M68.5738 201.859C91.3306 201.859 108.83 197.253 108.83 194.407C108.83 191.561 91.3306 191.556 68.5738 191.556C45.8169 191.556 26.9753 192 26.9753 194.844C26.9753 197.687 45.819 201.859 68.5738 201.859Z" fill="#D18F29"/>
<path fill-rule="evenodd" clip-rule="evenodd" d="M116.44 191.271C117.632 190.227 123.396 187.101 124.89 186.791C125.951 189.001 119.45 194.484 117.202 195.29C113.945 196.459 106.218 195.182 105.843 195.297C105.683 195.136 113.797 193.205 113.832 192.95C115.683 191.746 114.606 192.879 116.44 191.271Z" fill="#F5D590"/>
<path fill-rule="evenodd" clip-rule="evenodd" d="M21.8541 191.271C20.6623 190.227 14.8985 187.101 13.404 186.791C12.3439 189.001 18.8446 194.484 21.0925 195.29C24.349 196.458 32.5297 195.875 32.9023 195.988C33.0649 195.827 24.4952 193.205 24.4602 192.95C22.6116 191.746 23.6903 192.878 21.8541 191.271Z" fill="#F5D590"/>
<path fill-rule="evenodd" clip-rule="evenodd" d="M67.6949 200.197C90.4517 200.197 109.843 196.348 109.843 194.138C109.843 191.928 90.4517 192.192 67.6949 192.192C44.9402 192.192 25.2053 192.219 25.2053 194.431C25.2053 196.641 44.9402 200.197 67.6949 200.197Z" fill="#F5CD52"/>
<path fill-rule="evenodd" clip-rule="evenodd" d="M62.4104 202.62C63.8225 202.611 65.1914 202.591 66.5171 202.57V196.698H37.27L37.3195 201.041C43.8717 201.651 51.9903 202.62 62.4104 202.62Z" fill="url(#paint0_linear)"/>
<path fill-rule="evenodd" clip-rule="evenodd" d="M68.2981 198.234C97.4012 197.104 108.297 195.347 116.704 192.926C127.813 188.559 129.547 173.791 131.393 163.519C134.862 144.201 134.11 61.7715 128.641 43.831C126.807 37.8132 120.825 36.1648 118.694 32.5345L118.297 20.0623H68.1993H18.1035L17.7062 32.5345C15.5757 36.1648 9.59364 37.8132 7.75745 43.831C2.28801 61.7715 1.5389 144.201 5.00541 163.519C6.84983 173.791 8.58306 188.559 19.6949 192.926C27.5007 195.232 38.9932 198.234 68.2981 198.234Z" fill="url(#paint1_linear)"/>
<path fill-rule="evenodd" clip-rule="evenodd" d="M20.2403 25.8738C21.1666 26.0009 28.2722 26.5264 30.4109 26.5984C30.4109 29.3097 30.3863 31.5675 30.3863 34.2788C28.0479 34.2788 22.2285 33.938 20.238 33.5013C20.2401 30.8908 20.2403 28.4843 20.2403 25.8738Z" fill="url(#paint2_linear)"/>
<path fill-rule="evenodd" clip-rule="evenodd" d="M115.477 25.8738C114.55 26.0009 108.941 26.4976 106.798 26.5696C106.798 29.2809 106.825 31.5387 106.825 34.25C109.163 34.25 113.488 33.9381 115.477 33.5014C115.477 30.8908 115.477 28.4843 115.477 25.8738Z" fill="url(#paint3_linear)"/>
<path fill-rule="evenodd" clip-rule="evenodd" d="M16.9612 26.5481C17.1712 27.2199 39.9052 27.8964 68.2096 27.8964C96.514 27.8964 119.238 27.2799 119.46 26.5481C119.971 26.5481 120.393 26.9392 120.393 27.5678V29.3554C120.393 29.9864 119.971 30.3751 119.46 30.3751C119.46 31.1213 96.514 31.7236 68.2096 31.7236C64.5846 31.7236 16.0244 32.9665 16.0244 29.3554V27.5678C16.0265 26.9392 16.4486 26.5481 16.9612 26.5481Z" fill="#EAA42C"/>
<path fill-rule="evenodd" clip-rule="evenodd" d="M20.1064 27.0134C24.8575 27.3181 33.8883 27.5868 45.3274 27.7452C46.124 28.1291 46.5623 28.5203 46.5376 28.897C46.4614 30.255 40.4775 30.8956 33.1739 30.3293C30.5184 30.1254 26.8111 30.1349 24.7547 29.7247C21.387 29.0505 20.3514 27.8292 20.1064 27.0134Z" fill="url(#paint4_linear)"/>
<path fill-rule="evenodd" clip-rule="evenodd" d="M106.73 27.4404C109.528 27.7068 110.831 28.2634 110.831 28.94C110.831 29.3599 110.24 30.3773 109.678 31.1811C101.704 31.457 89.7292 31.6514 75.9825 31.7065C71.5032 30.9867 68.0859 29.7991 67.0464 27.894H68.2096C83.5557 27.8964 97.2736 27.7188 106.73 27.4404Z" fill="url(#paint5_linear)"/>
<path fill-rule="evenodd" clip-rule="evenodd" d="M100.52 39.2888C106.419 41.6283 115.077 47.082 116.138 55.2713C118.128 70.6565 122.027 141.509 118.079 161.844L127.478 159.387C133.133 136.324 130.819 58.2995 126.508 47.6868C124.668 43.1567 116.578 37.4028 113.748 37.4028C107.325 38.8113 107.026 37.6644 100.52 39.2888Z" fill="url(#paint6_linear)"/>
<path fill-rule="evenodd" clip-rule="evenodd" d="M6.89282 159.145C7.17278 199.508 55.669 195.249 72.8247 194.58C79.908 194.301 73.9816 184.288 71.3838 182.962C53.0137 173.573 11.0551 156.225 6.89282 159.145Z" fill="url(#paint7_linear)"/>
<path fill-rule="evenodd" clip-rule="evenodd" d="M7.44458 159.524C7.71836 199.179 55.3625 194.995 72.2176 194.335C79.1774 194.061 73.3539 184.226 70.8013 182.921C52.7544 173.697 11.5328 156.654 7.44458 159.524Z" fill="url(#paint8_linear)"/>
<path fill-rule="evenodd" clip-rule="evenodd" d="M7.99829 159.903C8.26796 198.846 55.0581 194.738 71.6106 194.09C78.4449 193.821 72.7263 184.161 70.219 182.88C52.4972 173.822 12.0145 157.084 7.99829 159.903Z" fill="url(#paint9_linear)"/>
<path fill-rule="evenodd" clip-rule="evenodd" d="M8.55005 160.282C8.81354 198.515 54.7509 194.481 71.0028 193.845C77.7134 193.582 72.0959 184.099 69.636 182.842C52.2376 173.947 12.4921 157.516 8.55005 160.282Z" fill="url(#paint10_linear)"/>
<path fill-rule="evenodd" clip-rule="evenodd" d="M9.10376 160.661C9.36313 198.186 54.4465 194.224 70.3957 193.603C76.9809 193.344 71.4682 184.036 69.0557 182.801C51.9783 174.072 12.9737 157.945 9.10376 160.661Z" fill="url(#paint11_linear)"/>
<path fill-rule="evenodd" clip-rule="evenodd" d="M9.65527 161.04C9.91053 197.852 54.1392 193.97 69.7878 193.356C76.2494 193.101 70.8417 183.969 68.4703 182.758C51.7204 174.196 13.4532 158.377 9.65527 161.04Z" fill="url(#paint12_linear)"/>
<path fill-rule="evenodd" clip-rule="evenodd" d="M10.209 161.42C10.4581 197.521 53.8348 193.711 69.1809 193.111C75.517 192.862 70.2144 183.907 67.8903 182.719C51.4614 174.324 13.9308 158.807 10.209 161.42Z" fill="url(#paint13_linear)"/>
<path fill-rule="evenodd" clip-rule="evenodd" d="M10.7607 161.796C11.0057 197.19 53.5283 193.455 68.5718 192.867C74.7844 192.622 69.5846 183.842 67.3079 182.679C51.2022 174.448 14.4125 159.236 10.7607 161.796Z" fill="url(#paint14_linear)"/>
<path fill-rule="evenodd" clip-rule="evenodd" d="M11.3145 162.178C11.5532 196.859 53.2233 193.2 67.9663 192.622C74.0533 192.382 68.9586 183.78 66.7272 182.638C50.9447 174.576 14.8901 159.668 11.3145 162.178Z" fill="url(#paint15_linear)"/>
<path fill-rule="evenodd" clip-rule="evenodd" d="M11.8662 162.557C12.1029 196.53 52.919 192.943 67.3594 192.379C73.3209 192.144 68.3329 183.72 66.1447 182.602C50.6833 174.698 15.3718 160.097 11.8662 162.557Z" fill="url(#paint16_linear)"/>
<path fill-rule="evenodd" clip-rule="evenodd" d="M12.4199 162.936C12.6484 196.197 52.6121 192.687 66.7519 192.135C72.5898 191.904 67.705 183.655 65.5641 182.561C50.426 174.825 15.8494 160.529 12.4199 162.936Z" fill="url(#paint17_linear)"/>
<path fill-rule="evenodd" clip-rule="evenodd" d="M12.9719 163.315C13.1984 195.868 52.3075 192.432 66.1447 191.89C71.857 191.667 67.0753 183.593 64.9818 182.52C50.1668 174.95 16.3314 160.959 12.9719 163.315Z" fill="url(#paint18_linear)"/>
<path fill-rule="evenodd" clip-rule="evenodd" d="M13.5234 163.694C13.7437 195.535 52.0031 192.173 65.5377 191.645C71.1265 191.424 66.4473 183.528 64.3991 182.479C49.9073 175.075 16.8088 161.388 13.5234 163.694Z" fill="url(#paint19_linear)"/>
<path fill-rule="evenodd" clip-rule="evenodd" d="M14.0771 164.073C14.2933 195.206 51.6961 191.919 64.9302 191.403C70.3935 191.189 65.8215 183.466 63.8165 182.443C49.65 175.2 17.2884 161.82 14.0771 164.073Z" fill="url(#paint20_linear)"/>
<path fill-rule="evenodd" clip-rule="evenodd" d="M14.6287 164.452C14.8407 194.875 51.3912 191.664 64.3227 191.156C69.6603 190.947 65.1935 183.401 63.2359 182.4C49.3905 175.324 17.7679 162.25 14.6287 164.452Z" fill="url(#paint21_linear)"/>
<path fill-rule="evenodd" clip-rule="evenodd" d="M15.1824 164.832C15.3903 194.541 51.0869 191.405 63.7159 190.913C68.928 190.709 64.5658 183.338 62.6514 182.362C49.1312 175.449 18.2475 162.682 15.1824 164.832Z" fill="url(#paint22_linear)"/>
<path fill-rule="evenodd" clip-rule="evenodd" d="M15.7341 165.211C15.9359 194.21 50.7802 191.151 63.1085 190.669C68.1992 190.47 63.936 183.276 62.069 182.321C48.874 175.576 18.7272 163.111 15.7341 165.211Z" fill="url(#paint23_linear)"/>
<path fill-rule="evenodd" clip-rule="evenodd" d="M16.2878 165.587C16.4855 193.879 50.4753 190.894 62.499 190.422C67.464 190.227 63.3101 183.211 61.4883 182.278C48.6145 175.701 19.2068 163.543 16.2878 165.587Z" fill="url(#paint24_linear)"/>
<path fill-rule="evenodd" clip-rule="evenodd" d="M16.8416 165.969C17.033 193.55 50.1708 190.64 61.894 190.179C66.7356 189.989 62.6824 183.149 60.908 182.239C48.3552 175.826 19.6844 163.973 16.8416 165.969Z" fill="url(#paint25_linear)"/>
<path fill-rule="evenodd" clip-rule="evenodd" d="M17.3933 166.348C17.5806 193.217 49.8641 190.383 61.2847 189.934C66.0007 189.75 62.0524 183.086 60.3233 182.201C48.0979 175.95 20.1661 164.402 17.3933 166.348Z" fill="url(#paint26_linear)"/>
<path fill-rule="evenodd" clip-rule="evenodd" d="M17.947 166.727C18.1282 192.886 49.5593 190.124 60.6794 189.69C65.2699 189.51 61.4267 183.022 59.7429 182.16C47.8385 176.078 20.6437 164.832 17.947 166.727Z" fill="url(#paint27_linear)"/>
<path fill-rule="evenodd" clip-rule="evenodd" d="M18.4985 167.106C18.6756 192.555 49.2528 189.87 60.0703 189.447C64.5372 189.272 60.7989 182.959 59.1604 182.122C47.5792 176.202 21.1252 165.263 18.4985 167.106Z" fill="#F2C642"/>
<path fill-rule="evenodd" clip-rule="evenodd" d="M102.914 190.23C103.34 184.442 105.973 184.15 108.929 177.918C111.434 172.635 109.165 166.869 114.585 166.178C119.161 165.597 119.839 164.832 125.156 164.832C131.309 185.558 107.364 194.081 102.914 190.23Z" fill="url(#paint28_linear)"/>
<path fill-rule="evenodd" clip-rule="evenodd" d="M103.146 190.028C103.564 184.334 106.156 184.049 109.062 177.918C111.526 172.721 109.295 167.049 114.627 166.372C119.126 165.801 119.794 165.05 125.022 165.05C131.078 185.433 107.523 193.819 103.146 190.028Z" fill="url(#paint29_linear)"/>
<path fill-rule="evenodd" clip-rule="evenodd" d="M103.381 189.829C103.793 184.231 106.341 183.948 109.198 177.918C111.621 172.81 109.427 167.231 114.67 166.564C119.094 166.003 119.75 165.263 124.893 165.263C130.844 185.311 107.683 193.553 103.381 189.829Z" fill="url(#paint30_linear)"/>
<path fill-rule="evenodd" clip-rule="evenodd" d="M103.614 189.627C104.017 184.125 106.522 183.847 109.332 177.92C111.714 172.896 109.556 167.413 114.711 166.758C119.06 166.209 119.705 165.479 124.76 165.479C130.613 185.186 107.846 193.291 103.614 189.627Z" fill="url(#paint31_linear)"/>
<path fill-rule="evenodd" clip-rule="evenodd" d="M103.846 189.426C104.244 184.017 106.706 183.744 109.466 177.92C111.807 172.982 109.686 167.593 114.75 166.95C119.026 166.408 119.66 165.693 124.629 165.693C130.38 185.063 108.007 193.027 103.846 189.426Z" fill="url(#paint32_linear)"/>
<path fill-rule="evenodd" clip-rule="evenodd" d="M104.079 189.227C104.468 183.912 106.887 183.646 109.6 177.923C111.899 173.074 109.818 167.778 114.793 167.145C118.995 166.612 119.616 165.909 124.499 165.909C130.15 184.937 108.165 192.764 104.079 189.227Z" fill="url(#paint33_linear)"/>
<path fill-rule="evenodd" clip-rule="evenodd" d="M104.312 189.025C104.697 183.806 107.072 183.542 109.738 177.923C111.996 173.16 109.952 167.96 114.839 167.336C118.964 166.813 119.577 166.125 124.369 166.125C129.915 184.814 108.326 192.499 104.312 189.025Z" fill="url(#paint34_linear)"/>
<path fill-rule="evenodd" clip-rule="evenodd" d="M104.546 188.823C104.923 183.701 107.253 183.442 109.87 177.923C112.087 173.246 110.079 168.14 114.88 167.529C118.931 167.015 119.53 166.338 124.238 166.338C129.685 184.689 108.486 192.235 104.546 188.823Z" fill="url(#paint35_linear)"/>
<path fill-rule="evenodd" clip-rule="evenodd" d="M104.777 188.624C105.147 183.595 107.436 183.341 110.003 177.925C112.181 173.335 110.211 168.323 114.921 167.725C118.896 167.219 119.485 166.557 124.106 166.557C129.454 184.567 108.645 191.974 104.777 188.624Z" fill="url(#paint36_linear)"/>
<path fill-rule="evenodd" clip-rule="evenodd" d="M105.011 188.425C105.376 183.49 107.622 183.242 110.139 177.928C112.274 173.421 110.341 168.507 114.964 167.917C118.865 167.423 119.443 166.77 123.974 166.77C129.219 184.442 108.803 191.708 105.011 188.425Z" fill="url(#paint37_linear)"/>
<path fill-rule="evenodd" clip-rule="evenodd" d="M105.244 188.223C105.6 183.381 107.803 183.139 110.273 177.928C112.369 173.51 110.471 168.687 115.006 168.112C118.828 167.625 119.396 166.986 123.843 166.986C128.989 184.317 108.964 191.443 105.244 188.223Z" fill="url(#paint38_linear)"/>
<path fill-rule="evenodd" clip-rule="evenodd" d="M105.477 188.022C105.827 183.276 107.986 183.038 110.409 177.928C112.463 173.597 110.602 168.87 115.049 168.303C118.797 167.828 119.353 167.202 123.713 167.202C128.758 184.193 109.126 191.18 105.477 188.022Z" fill="url(#paint39_linear)"/>
<path fill-rule="evenodd" clip-rule="evenodd" d="M105.709 187.823C106.051 183.173 108.167 182.938 110.542 177.93C112.556 173.686 110.732 169.052 115.088 168.498C118.762 168.03 119.31 167.416 123.581 167.416C128.523 184.07 109.285 190.918 105.709 187.823Z" fill="url(#paint40_linear)"/>
<path fill-rule="evenodd" clip-rule="evenodd" d="M105.942 187.621C106.279 183.067 108.352 182.837 110.678 177.93C112.648 173.774 110.864 169.235 115.131 168.69C118.731 168.234 119.266 167.632 123.451 167.632C128.291 183.945 109.445 190.654 105.942 187.621Z" fill="url(#paint41_linear)"/>
<path fill-rule="evenodd" clip-rule="evenodd" d="M106.176 187.42C106.504 182.959 108.535 182.736 110.81 177.932C112.741 173.861 110.993 169.417 115.172 168.884C118.696 168.436 119.221 167.845 123.318 167.845C128.061 183.821 109.606 190.388 106.176 187.42Z" fill="url(#paint42_linear)"/>
<path fill-rule="evenodd" clip-rule="evenodd" d="M106.409 187.221C106.728 182.854 108.716 182.635 110.946 177.933C112.834 173.947 111.123 169.597 115.213 169.079C118.663 168.64 119.176 168.064 123.186 168.064C127.83 183.696 109.764 190.126 106.409 187.221Z" fill="url(#paint43_linear)"/>
<path fill-rule="evenodd" clip-rule="evenodd" d="M106.642 187.019C106.957 182.748 108.902 182.532 111.08 177.932C112.928 174.033 111.255 169.779 115.257 169.27C118.63 168.843 119.133 168.277 123.054 168.277C127.595 183.574 109.925 189.863 106.642 187.019Z" fill="url(#paint44_linear)"/>
<path fill-rule="evenodd" clip-rule="evenodd" d="M106.875 186.82C107.181 182.643 109.084 182.431 111.214 177.935C113.021 174.124 111.385 169.964 115.296 169.465C118.598 169.045 119.087 168.493 122.922 168.493C127.362 183.449 110.086 189.599 106.875 186.82Z" fill="url(#paint45_linear)"/>
<path fill-rule="evenodd" clip-rule="evenodd" d="M107.107 186.618C107.407 182.537 109.266 182.331 111.35 177.937C113.116 174.211 111.516 170.144 115.341 169.659C118.563 169.249 119.044 168.709 122.793 168.709C127.134 183.324 110.246 189.335 107.107 186.618Z" fill="url(#paint46_linear)"/>
<path fill-rule="evenodd" clip-rule="evenodd" d="M107.34 186.417C107.634 182.431 109.447 182.23 111.483 177.937C113.208 174.297 111.646 170.326 115.382 169.851C118.532 169.451 119.001 168.923 122.663 168.923C126.9 183.199 110.407 189.073 107.34 186.417Z" fill="url(#paint47_linear)"/>
<path fill-rule="evenodd" clip-rule="evenodd" d="M107.574 186.218C107.86 182.326 109.633 182.129 111.619 177.94C113.303 174.388 111.778 170.511 115.425 170.045C118.499 169.654 118.958 169.141 122.531 169.141C126.667 183.077 110.565 188.807 107.574 186.218Z" fill="url(#paint48_linear)"/>
<path fill-rule="evenodd" clip-rule="evenodd" d="M107.807 186.016C108.087 182.218 109.816 182.028 111.753 177.94C113.396 174.475 111.907 170.691 115.467 170.24C118.466 169.859 118.913 169.357 122.4 169.357C126.437 182.952 110.726 188.543 107.807 186.016Z" fill="#F5CD52"/>
<path fill-rule="evenodd" clip-rule="evenodd" d="M39.092 46.0239C38.3469 54.7986 37.048 168.8 35.3889 169.909C29.9833 170.449 14.421 166.384 8.38338 164.342C5.59617 137.233 5.77104 73.1567 11.9898 49.9662C13.8959 42.8519 14.8965 43.2767 16.7986 42.0818C21.9489 44.402 29.2339 45.4097 39.092 46.0239Z" fill="url(#paint49_linear)"/>
<path fill-rule="evenodd" clip-rule="evenodd" d="M67.5385 25.5234C98.2781 25.5234 123.197 24.1293 123.197 22.4089V5.82886H11.8787V22.4089C11.8787 24.1293 36.7988 25.5234 67.5385 25.5234Z" fill="#402515"/>
<path fill-rule="evenodd" clip-rule="evenodd" d="M17.6526 23.7911L17.6279 6.89185L43.6433 6.99744V25.2236C32.3729 24.9237 23.1941 24.4173 17.6526 23.7911Z" fill="url(#paint50_linear)"/>
<path fill-rule="evenodd" clip-rule="evenodd" d="M101.51 5.00806H119.849V23.4765C116.207 24.0355 109.779 24.5202 101.51 24.8777V5.00806Z" fill="url(#paint51_linear)"/>
<path d="M67.5384 8.22827C98.2775 8.22827 123.197 7.15407 123.197 5.82898C123.197 4.50389 98.2775 3.42969 67.5384 3.42969C36.7994 3.42969 11.8806 4.50389 11.8806 5.82898C11.8806 7.15407 36.7994 8.22827 67.5384 8.22827Z" fill="url(#paint52_linear)"/>
<path fill-rule="evenodd" clip-rule="evenodd" d="M87.6067 8.06738C96.6909 7.91622 104.624 7.66422 110.68 7.34509V5.00806H87.6067V8.06738Z" fill="url(#paint53_linear)"/>
<path fill-rule="evenodd" clip-rule="evenodd" d="M35.1479 7.77966C40.2036 7.93563 45.8912 8.05554 52.0132 8.13232V5.82886H35.1479V7.77966Z" fill="url(#paint54_linear)"/>
<path fill-rule="evenodd" clip-rule="evenodd" d="M19.009 2.06885H115.905C115.94 2.06885 115.967 2.10246 115.967 2.14325V5.67785C115.967 5.71864 115.938 5.74976 115.905 5.74976H18.9163C18.8813 5.74976 16.2588 4.92187 16.2856 4.89547C16.5656 4.58353 18.4964 2.06885 19.009 2.06885Z" fill="#402515"/>
<path fill-rule="evenodd" clip-rule="evenodd" d="M19.0091 2.06885H19.1983L21.3477 2.60151L19.1983 5.74976H18.9164C18.8814 5.74976 16.2588 4.92187 16.2856 4.89547C16.5656 4.58353 18.4965 2.06885 19.0091 2.06885Z" fill="#9D8D7D"/>
<path fill-rule="evenodd" clip-rule="evenodd" d="M116.325 2.06885H116.136L114.236 2.66639L116.136 5.74976H116.418C116.453 5.74976 119.076 4.92187 119.049 4.89547C118.769 4.58353 116.838 2.06885 116.325 2.06885Z" fill="#9D8D7D"/>
<path d="M67.5385 3.95728C94.4632 3.95728 116.29 3.14413 116.29 2.14094C116.29 1.13775 94.4632 0.324463 67.5385 0.324463C40.6137 0.324463 18.7869 1.13775 18.7869 2.14094C18.7869 3.14413 40.6137 3.95728 67.5385 3.95728Z" fill="url(#paint55_linear)"/>
<path d="M67.5385 7.19897C94.4632 7.19897 116.29 6.49422 116.29 5.62488C116.29 4.75554 94.4632 4.05078 67.5385 4.05078C40.6137 4.05078 18.7869 4.75554 18.7869 5.62488C18.7869 6.49422 40.6137 7.19897 67.5385 7.19897Z" fill="#402515"/>
<path fill-rule="evenodd" clip-rule="evenodd" d="M20.5097 2.62089C17.5105 2.74326 17.282 4.90519 16.5141 4.97957C16.4153 5.36108 12.7308 5.02991 12.6052 5.8937C13.6386 6.46955 25.3595 7.12466 26.9548 6.50321C22.1544 6.19849 20.9874 5.82173 19.8325 5.46182C19.8325 5.00834 20.6888 3.72468 21.4422 3.46794C22.6238 3.06724 23.9742 3.34797 25.271 3.04324C23.0293 2.78651 21.539 2.5801 20.5097 2.62089Z" fill="url(#paint56_linear)"/>
<path fill-rule="evenodd" clip-rule="evenodd" d="M114.939 2.62084C117.753 2.76961 118.163 4.93153 118.931 5.00831C119.032 5.38983 122.719 5.0299 122.844 5.89611C121.811 6.47198 110.092 7.12711 108.494 6.50565C113.297 6.20091 114.462 5.82414 115.617 5.46422C115.617 5.01072 114.761 3.72701 114.009 3.47027C112.826 3.06955 111.424 3.27589 110.125 2.97116C112.366 2.71441 113.91 2.57285 114.939 2.62084Z" fill="url(#paint57_linear)"/>
<path d="M84.3623 139.904C81.851 141.725 79.0576 143.114 76.0213 143.971C68.1805 146.205 60.311 144.489 53.9502 139.887C47.7315 135.407 42.9453 128.171 41.068 119.235C37.2844 101.141 46.7784 82.9007 62.3015 78.4929C77.8124 74.0708 93.459 85.1489 97.2549 103.243C100.306 117.8 94.731 132.446 84.3623 139.904Z" fill="white"/>
<defs>
<linearGradient id="paint0_linear" x1="37.2724" y1="199.658" x2="66.5195" y2="199.658" gradientUnits="userSpaceOnUse">
<stop stop-color="#F2C642"/>
<stop offset="0.52" stop-color="#F7DF8F"/>
<stop offset="1" stop-color="#F5CD52"/>
</linearGradient>
<linearGradient id="paint1_linear" x1="68.1993" y1="198.233" x2="68.1993" y2="20.0603" gradientUnits="userSpaceOnUse">
<stop stop-color="#ECBE24"/>
<stop offset="1" stop-color="#E89C23"/>
</linearGradient>
<linearGradient id="paint2_linear" x1="20.2401" y1="30.0754" x2="30.4119" y2="30.0754" gradientUnits="userSpaceOnUse">
<stop offset="0.23" stop-color="#F5D590"/>
<stop offset="0.77" stop-color="#EAB423"/>
</linearGradient>
<linearGradient id="paint3_linear" x1="115.476" y1="30.0613" x2="106.798" y2="30.0613" gradientUnits="userSpaceOnUse">
<stop offset="0.15" stop-color="#F5D590"/>
<stop offset="0.85" stop-color="#EAB423"/>
</linearGradient>
<linearGradient id="paint4_linear" x1="20.1095" y1="28.775" x2="46.5423" y2="28.775" gradientUnits="userSpaceOnUse">
<stop stop-color="#F5D590"/>
<stop offset="1" stop-color="#EAB423"/>
</linearGradient>
<linearGradient id="paint5_linear" x1="110.832" y1="29.5716" x2="67.0492" y2="29.5716" gradientUnits="userSpaceOnUse">
<stop offset="0.08" stop-color="#F5D590"/>
<stop offset="0.92" stop-color="#EDBD45"/>
</linearGradient>
<linearGradient id="paint6_linear" x1="130.834" y1="99.6221" x2="100.524" y2="99.6221" gradientUnits="userSpaceOnUse">
<stop offset="0.08" stop-color="#F5D590"/>
<stop offset="0.92" stop-color="#EDBD45"/>
</linearGradient>
<linearGradient id="paint7_linear" x1="41.5393" y1="195.028" x2="41.5393" y2="158.818" gradientUnits="userSpaceOnUse">
<stop stop-color="#ECBE24"/>
<stop offset="1" stop-color="#EBB823"/>
</linearGradient>
<linearGradient id="paint8_linear" x1="41.5337" y1="194.897" x2="41.5337" y2="159.32" gradientUnits="userSpaceOnUse">
<stop stop-color="#EDBE26"/>
<stop offset="1" stop-color="#ECB924"/>
</linearGradient>
<linearGradient id="paint9_linear" x1="41.346" y1="194.353" x2="41.346" y2="159.415" gradientUnits="userSpaceOnUse">
<stop stop-color="#EDBE27"/>
<stop offset="1" stop-color="#ECB926"/>
</linearGradient>
<linearGradient id="paint10_linear" x1="41.3389" y1="194.214" x2="41.3389" y2="159.915" gradientUnits="userSpaceOnUse">
<stop stop-color="#EDBF28"/>
<stop offset="1" stop-color="#ECBA27"/>
</linearGradient>
<linearGradient id="paint11_linear" x1="41.3391" y1="194.075" x2="41.3391" y2="160.411" gradientUnits="userSpaceOnUse">
<stop stop-color="#EDBF2A"/>
<stop offset="1" stop-color="#EDBA29"/>
</linearGradient>
<linearGradient id="paint12_linear" x1="41.3367" y1="193.933" x2="41.3367" y2="160.904" gradientUnits="userSpaceOnUse">
<stop stop-color="#EEC02B"/>
<stop offset="1" stop-color="#EDBB2A"/>
</linearGradient>
<linearGradient id="paint13_linear" x1="41.1372" y1="193.409" x2="41.1372" y2="161.021" gradientUnits="userSpaceOnUse">
<stop stop-color="#EEC02D"/>
<stop offset="1" stop-color="#EDBC2C"/>
</linearGradient>
<linearGradient id="paint14_linear" x1="41.1367" y1="193.265" x2="41.1367" y2="161.512" gradientUnits="userSpaceOnUse">
<stop stop-color="#EEC02E"/>
<stop offset="1" stop-color="#EEBC2D"/>
</linearGradient>
<linearGradient id="paint15_linear" x1="41.1445" y1="193.112" x2="41.1445" y2="161.996" gradientUnits="userSpaceOnUse">
<stop stop-color="#EEC130"/>
<stop offset="1" stop-color="#EEBD2F"/>
</linearGradient>
<linearGradient id="paint16_linear" x1="40.9271" y1="192.606" x2="40.9271" y2="162.13" gradientUnits="userSpaceOnUse">
<stop stop-color="#EFC131"/>
<stop offset="1" stop-color="#EEBE30"/>
</linearGradient>
<linearGradient id="paint17_linear" x1="40.9351" y1="192.456" x2="40.9351" y2="162.618" gradientUnits="userSpaceOnUse">
<stop stop-color="#EFC132"/>
<stop offset="1" stop-color="#EEBE32"/>
</linearGradient>
<linearGradient id="paint18_linear" x1="40.9458" y1="192.302" x2="40.9458" y2="163.097" gradientUnits="userSpaceOnUse">
<stop stop-color="#EFC234"/>
<stop offset="1" stop-color="#EFBF33"/>
</linearGradient>
<linearGradient id="paint19_linear" x1="40.9614" y1="192.142" x2="40.9614" y2="163.576" gradientUnits="userSpaceOnUse">
<stop stop-color="#F0C235"/>
<stop offset="1" stop-color="#EFC035"/>
</linearGradient>
<linearGradient id="paint20_linear" x1="40.7226" y1="191.658" x2="40.7226" y2="163.73" gradientUnits="userSpaceOnUse">
<stop stop-color="#F0C337"/>
<stop offset="1" stop-color="#EFC036"/>
</linearGradient>
<linearGradient id="paint21_linear" x1="40.7409" y1="191.497" x2="40.7409" y2="164.205" gradientUnits="userSpaceOnUse">
<stop stop-color="#F0C338"/>
<stop offset="1" stop-color="#F0C138"/>
</linearGradient>
<linearGradient id="paint22_linear" x1="40.7616" y1="191.33" x2="40.7616" y2="164.676" gradientUnits="userSpaceOnUse">
<stop stop-color="#F0C33A"/>
<stop offset="1" stop-color="#F0C239"/>
</linearGradient>
<linearGradient id="paint23_linear" x1="40.5078" y1="190.866" x2="40.5078" y2="164.851" gradientUnits="userSpaceOnUse">
<stop stop-color="#F1C43B"/>
<stop offset="1" stop-color="#F0C23B"/>
</linearGradient>
<linearGradient id="paint24_linear" x1="40.5295" y1="190.702" x2="40.5295" y2="165.321" gradientUnits="userSpaceOnUse">
<stop stop-color="#F1C43D"/>
<stop offset="1" stop-color="#F1C33C"/>
</linearGradient>
<linearGradient id="paint25_linear" x1="40.555" y1="190.527" x2="40.555" y2="165.784" gradientUnits="userSpaceOnUse">
<stop stop-color="#F1C43E"/>
<stop offset="1" stop-color="#F1C43E"/>
</linearGradient>
<linearGradient id="paint26_linear" x1="40.5873" y1="190.348" x2="40.5873" y2="166.242" gradientUnits="userSpaceOnUse">
<stop stop-color="#F1C53F"/>
<stop offset="1" stop-color="#F1C43F"/>
</linearGradient>
<linearGradient id="paint27_linear" x1="40.3085" y1="189.911" x2="40.3085" y2="166.444" gradientUnits="userSpaceOnUse">
<stop stop-color="#F2C541"/>
<stop offset="1" stop-color="#F2C541"/>
</linearGradient>
<linearGradient id="paint28_linear" x1="114.537" y1="191.128" x2="114.537" y2="164.832" gradientUnits="userSpaceOnUse">
<stop stop-color="#ECBE24"/>
<stop offset="1" stop-color="#EBB823"/>
</linearGradient>
<linearGradient id="paint29_linear" x1="114.63" y1="191.04" x2="114.63" y2="165.172" gradientUnits="userSpaceOnUse">
<stop stop-color="#EDBE26"/>
<stop offset="1" stop-color="#ECB925"/>
</linearGradient>
<linearGradient id="paint30_linear" x1="114.543" y1="190.512" x2="114.543" y2="165.076" gradientUnits="userSpaceOnUse">
<stop stop-color="#EDBF28"/>
<stop offset="1" stop-color="#ECBA27"/>
</linearGradient>
<linearGradient id="paint31_linear" x1="114.64" y1="190.423" x2="114.64" y2="165.419" gradientUnits="userSpaceOnUse">
<stop stop-color="#EEC02B"/>
<stop offset="1" stop-color="#EDBB29"/>
</linearGradient>
<linearGradient id="paint32_linear" x1="114.735" y1="190.329" x2="114.735" y2="165.754" gradientUnits="userSpaceOnUse">
<stop stop-color="#EEC12D"/>
<stop offset="1" stop-color="#EDBC2C"/>
</linearGradient>
<linearGradient id="paint33_linear" x1="114.837" y1="190.227" x2="114.837" y2="166.083" gradientUnits="userSpaceOnUse">
<stop stop-color="#EEC12F"/>
<stop offset="1" stop-color="#EEBD2E"/>
</linearGradient>
<linearGradient id="paint34_linear" x1="114.734" y1="189.722" x2="114.734" y2="166.009" gradientUnits="userSpaceOnUse">
<stop stop-color="#EFC231"/>
<stop offset="1" stop-color="#EEBE30"/>
</linearGradient>
<linearGradient id="paint35_linear" x1="114.837" y1="189.62" x2="114.837" y2="166.34" gradientUnits="userSpaceOnUse">
<stop stop-color="#EFC333"/>
<stop offset="1" stop-color="#EFBF32"/>
</linearGradient>
<linearGradient id="paint36_linear" x1="114.941" y1="189.516" x2="114.941" y2="166.666" gradientUnits="userSpaceOnUse">
<stop stop-color="#F0C336"/>
<stop offset="1" stop-color="#EFC035"/>
</linearGradient>
<linearGradient id="paint37_linear" x1="114.825" y1="189.026" x2="114.825" y2="166.606" gradientUnits="userSpaceOnUse">
<stop stop-color="#F0C438"/>
<stop offset="1" stop-color="#EFC137"/>
</linearGradient>
<linearGradient id="paint38_linear" x1="114.933" y1="188.925" x2="114.933" y2="166.936" gradientUnits="userSpaceOnUse">
<stop stop-color="#F0C53A"/>
<stop offset="1" stop-color="#F0C239"/>
</linearGradient>
<linearGradient id="paint39_linear" x1="115.039" y1="188.81" x2="115.039" y2="167.251" gradientUnits="userSpaceOnUse">
<stop stop-color="#F1C53C"/>
<stop offset="1" stop-color="#F0C33B"/>
</linearGradient>
<linearGradient id="paint40_linear" x1="115.156" y1="188.695" x2="115.156" y2="167.567" gradientUnits="userSpaceOnUse">
<stop stop-color="#F1C63E"/>
<stop offset="1" stop-color="#F1C43E"/>
</linearGradient>
<linearGradient id="paint41_linear" x1="115.017" y1="188.233" x2="115.017" y2="167.535" gradientUnits="userSpaceOnUse">
<stop stop-color="#F2C740"/>
<stop offset="1" stop-color="#F1C540"/>
</linearGradient>
<linearGradient id="paint42_linear" x1="115.135" y1="188.114" x2="115.135" y2="167.848" gradientUnits="userSpaceOnUse">
<stop stop-color="#F2C843"/>
<stop offset="1" stop-color="#F2C642"/>
</linearGradient>
<linearGradient id="paint43_linear" x1="115.255" y1="187.991" x2="115.255" y2="168.154" gradientUnits="userSpaceOnUse">
<stop stop-color="#F2C845"/>
<stop offset="1" stop-color="#F2C744"/>
</linearGradient>
<linearGradient id="paint44_linear" x1="115.098" y1="187.55" x2="115.098" y2="168.146" gradientUnits="userSpaceOnUse">
<stop stop-color="#F3C947"/>
<stop offset="1" stop-color="#F3C847"/>
</linearGradient>
<linearGradient id="paint45_linear" x1="115.216" y1="187.423" x2="115.216" y2="168.449" gradientUnits="userSpaceOnUse">
<stop stop-color="#F3CA49"/>
<stop offset="1" stop-color="#F3C949"/>
</linearGradient>
<linearGradient id="paint46_linear" x1="115.345" y1="187.293" x2="115.345" y2="168.749" gradientUnits="userSpaceOnUse">
<stop stop-color="#F4CA4B"/>
<stop offset="1" stop-color="#F3CA4B"/>
</linearGradient>
<linearGradient id="paint47_linear" x1="115.48" y1="187.154" x2="115.48" y2="169.04" gradientUnits="userSpaceOnUse">
<stop stop-color="#F4CB4D"/>
<stop offset="1" stop-color="#F4CB4D"/>
</linearGradient>
<linearGradient id="paint48_linear" x1="115.297" y1="186.747" x2="115.297" y2="169.065" gradientUnits="userSpaceOnUse">
<stop stop-color="#F4CC50"/>
<stop offset="1" stop-color="#F4CC50"/>
</linearGradient>
<linearGradient id="paint49_linear" x1="6.65852" y1="106.021" x2="39.0938" y2="106.021" gradientUnits="userSpaceOnUse">
<stop stop-color="#F5D590"/>
<stop offset="1" stop-color="#EAB423"/>
</linearGradient>
<linearGradient id="paint50_linear" x1="17.6295" y1="16.0596" x2="43.645" y2="16.0596" gradientUnits="userSpaceOnUse">
<stop stop-color="#A28D7C"/>
<stop offset="1" stop-color="#52311D"/>
</linearGradient>
<linearGradient id="paint51_linear" x1="101.512" y1="14.9439" x2="119.852" y2="14.9439" gradientUnits="userSpaceOnUse">
<stop stop-color="#52311D"/>
<stop offset="1" stop-color="#CBC2B1"/>
</linearGradient>
<linearGradient id="paint52_linear" x1="11.8777" y1="5.82848" x2="123.197" y2="5.82848" gradientUnits="userSpaceOnUse">
<stop stop-color="#7F6453"/>
<stop offset="1" stop-color="#8C7665"/>
</linearGradient>
<linearGradient id="paint53_linear" x1="87.6085" y1="6.53867" x2="110.683" y2="6.53867" gradientUnits="userSpaceOnUse">
<stop stop-color="#7F6453"/>
<stop offset="0.5" stop-color="#CBC2B1"/>
<stop offset="1" stop-color="#836A59"/>
</linearGradient>
<linearGradient id="paint54_linear" x1="35.1476" y1="6.9818" x2="52.0151" y2="6.9818" gradientUnits="userSpaceOnUse">
<stop stop-color="#7F6453"/>
<stop offset="0.5" stop-color="#CBC2B1"/>
<stop offset="1" stop-color="#836A59"/>
</linearGradient>
<linearGradient id="paint55_linear" x1="18.7894" y1="2.14128" x2="116.292" y2="2.14128" gradientUnits="userSpaceOnUse">
<stop stop-color="#CFC2AC"/>
<stop offset="0.5" stop-color="#CBC2B1"/>
<stop offset="1" stop-color="#CEC1AA"/>
</linearGradient>
<linearGradient id="paint56_linear" x1="19.3423" y1="7.46912" x2="20.8234" y2="2.07337" gradientUnits="userSpaceOnUse">
<stop offset="0.08" stop-color="#7F6453"/>
<stop offset="0.5" stop-color="#D9CDB7"/>
<stop offset="0.92" stop-color="#B8AD9C"/>
</linearGradient>
<linearGradient id="paint57_linear" x1="116.439" y1="2.29607" x2="115.664" y2="7.19338" gradientUnits="userSpaceOnUse">
<stop offset="0.05" stop-color="#7F6453"/>
<stop offset="0.5" stop-color="#D9CDB7"/>
<stop offset="0.95" stop-color="#B8AD9C"/>
</linearGradient>
</defs>
</svg>
