<svg width="395" height="329" viewBox="0 0 395 329" fill="none" xmlns="http://www.w3.org/2000/svg">
<path d="M394.159 98.5463V313.749C394.159 321.369 387.904 327.596 380.195 327.653L191.551 328.965C183.834 329.014 177.586 322.881 177.586 315.255V100.052C177.586 92.4316 183.836 86.2049 191.551 86.148L306.86 85.3483L347.362 85.0634L380.195 84.8355C387.906 84.7846 394.159 90.9197 394.159 98.5463Z" fill="#FFC40E"/>
<path d="M336.246 253.595C336.939 255.648 337.372 257.274 337.544 258.47C337.717 259.669 337.489 260.572 336.851 261.177C336.213 261.781 335.087 262.157 333.467 262.314C331.845 262.467 329.617 262.552 326.785 262.573C323.835 262.593 321.536 262.564 319.889 262.491C318.238 262.416 316.978 262.253 316.111 262.003C315.245 261.753 314.637 261.398 314.29 260.945C313.944 260.491 313.651 259.893 313.423 259.152L305.897 236.991L263.574 237.286L256.503 258.947C256.271 259.75 255.968 260.422 255.591 260.967C255.217 261.512 254.609 261.946 253.772 262.265C252.932 262.585 251.746 262.807 250.212 262.933C248.679 263.057 246.67 263.13 244.183 263.146C241.521 263.165 239.438 263.093 237.936 262.935C236.431 262.772 235.389 262.367 234.811 261.714C234.23 261.063 234.029 260.135 234.204 258.932C234.376 257.734 234.811 256.13 235.509 254.126L270.201 155.506C270.548 154.531 270.952 153.743 271.415 153.141C271.876 152.539 272.615 152.077 273.626 151.753C274.639 151.434 276.043 151.224 277.836 151.125C279.628 151.029 282 150.968 284.952 150.947C288.365 150.923 291.084 150.947 293.108 151.019C295.133 151.092 296.708 151.281 297.838 151.586C298.964 151.894 299.773 152.36 300.267 152.984C300.759 153.611 301.179 154.464 301.527 155.546L336.246 253.595ZM284.692 172.553H284.606L268.729 219.882L300.496 219.662L284.692 172.553Z" fill="white"/>
<path d="M245.807 44.9079L274.208 62.9387C277.07 64.7558 280.905 62.6334 280.905 59.2311V50.4061C305.601 49.7916 325.694 69.151 325.694 93.563L316.766 93.7848C313.326 93.8702 311.274 97.714 313.184 100.494L332.139 128.096C333.845 130.579 337.598 130.485 339.302 127.917L358.257 99.3704C360.167 96.4931 358.117 92.7551 354.675 92.8406L345.748 93.0624C345.748 57.7193 316.659 29.6894 280.905 30.5786V21.7535C280.905 18.3533 277.07 16.4202 274.208 18.3798L245.805 37.8247C243.255 39.5767 243.255 43.2882 245.807 44.9079Z" fill="#FFC40E"/>
<path d="M203.521 243.455L14.8802 243.962C7.16701 243.982 0.91333 237.819 0.91333 230.194V14.9918C0.91333 7.36723 7.16701 1.16912 14.8802 1.14877L203.521 0.642079C211.235 0.621731 217.489 6.78527 217.489 14.4098V229.612C217.489 237.237 211.235 243.433 203.521 243.455Z" fill="#D03D28"/>
<path d="M149.268 284.939L120.864 266.909C118.003 265.092 114.168 267.214 114.168 270.616V279.441C89.4723 280.056 69.3812 260.696 69.3812 236.285L78.309 236.063C81.7508 235.977 83.8011 232.135 81.8908 229.354L62.9341 201.751C61.2296 199.269 57.477 199.362 55.7725 201.928L36.8178 230.477C34.9075 233.354 36.9578 237.092 40.3996 237.007L49.3273 236.785C49.3273 272.128 78.416 300.158 114.17 299.269V308.094C114.17 311.494 118.005 313.427 120.866 311.468L149.27 292.023C151.822 290.271 151.822 286.561 149.268 284.939Z" fill="#B92D26"/>
<path d="M105.714 92.9403H50.548L42.9048 82.2635L38.4172 77.1723V74.5433H178.159L185.802 85.2201L190.29 90.3113V92.9403H127.647C127.48 100.331 126.982 106.737 125.986 111.993C130.307 107.394 135.789 105.752 140.941 105.752C150.079 105.752 157.889 110.843 164.204 117.906C170.684 125.134 175.668 133.509 175.668 141.559C175.668 157.327 165.699 167.019 150.744 167.019C148.253 167.019 146.258 167.019 143.765 166.361L134.461 149.609L135.457 147.966C137.783 148.624 140.608 148.624 142.269 148.624C151.075 148.624 158.22 143.532 158.22 134.335C158.22 128.257 153.07 123.493 145.925 123.493C135.29 123.493 126.816 132.198 126.816 149.938V185.253H122.995L116.017 179.832L106.047 173.919C106.047 173.919 107.377 163.242 107.875 157.986C103.223 163.407 96.5761 164.556 91.259 164.556C82.4527 164.556 74.4781 159.63 67.8312 152.073C62.0159 145.339 56.3675 136.634 56.3675 127.927C56.3675 112.489 67.1684 104.112 81.9566 104.112C85.1144 104.112 86.1107 104.276 89.1017 104.934L98.5729 122.016L97.5766 123.823C95.2505 123.166 91.7613 122.509 89.1017 122.509C82.1234 122.509 73.982 126.122 73.982 135.155C73.982 140.741 77.9693 147.639 86.2774 147.639C97.0784 147.639 105.718 140.411 105.718 121.851V92.9403H105.714Z" fill="white"/>
</svg>
