<svg width="158" height="184" viewBox="0 0 158 184" fill="none" xmlns="http://www.w3.org/2000/svg">
<path d="M37.1435 1.3833C17.3983 1.3833 1.39331 20.0385 1.39331 43.0585V140.871C1.39331 163.901 17.3983 182.558 37.1435 182.558H121.071C140.816 182.558 156.821 163.901 156.821 140.871V43.0585C156.821 20.0385 140.816 1.3833 121.071 1.3833H37.1435Z" fill="#EF4F44"/>
<path d="M1.42224 0.541415L0.735352 182.506L156.852 183.307L157.539 1.34209L1.42224 0.541415Z" fill="#EF4F44"/>
<path d="M111.865 127.286H107.207V92.0912C107.207 74.4484 94.8267 60.0039 79.6782 60.0039C64.5399 60.0039 52.154 74.4508 52.154 92.0912V127.286H47.4934C43.3682 127.286 40.0027 131.216 40.0027 136.014C40.0027 140.823 43.3682 144.751 47.4934 144.751H111.865C115.992 144.751 119.364 140.823 119.364 136.014C119.364 131.216 115.992 127.286 111.865 127.286Z" fill="white"/>
<path d="M79.6801 49.2036C83.7537 49.2036 87.0701 45.3551 87.0701 40.5994C87.0701 35.8509 83.7558 31.9976 79.6801 31.9976C75.6044 31.9976 72.2966 35.8509 72.2966 40.5994C72.2966 45.3551 75.6044 49.2036 79.6801 49.2036Z" fill="white"/>
</svg>
