<svg width="158" height="184" viewBox="0 0 158 184" fill="none" xmlns="http://www.w3.org/2000/svg">
<path d="M157.419 1.3833L156.731 183.355L0.618896 182.554L1.3064 0.57666L157.419 1.3833Z" fill="url(#paint0_linear)"/>
<path d="M111.302 50.0118L79.9061 63.3382C79.3318 63.5853 78.708 63.5853 78.1316 63.3382L46.7355 50.0118C44.8334 49.2056 42.8901 51.1254 42.8901 53.8271V82.3514C42.8901 111.276 56.7954 136.857 77.2383 145.531L79.0169 146.284L80.7994 145.531C101.242 136.857 115.152 111.276 115.152 82.3514V53.8271C115.15 51.1254 113.204 49.2056 111.302 50.0118ZM86.8762 100.817L91.3822 116.966L79.591 106.977L67.8042 116.966L72.3081 100.817L60.5213 90.8361H75.0871L79.589 74.6827L84.093 90.8361H98.661L86.8762 100.817Z" fill="white"/>
<defs>
<linearGradient id="paint0_linear" x1="79.5172" y1="-38.3804" x2="78.3758" y2="183.879" gradientUnits="userSpaceOnUse">
<stop stop-color="#F2D210"/>
<stop offset="1" stop-color="#EAA42C"/>
</linearGradient>
</defs>
</svg>
