<svg width="226" height="222" viewBox="0 0 226 222" fill="none" xmlns="http://www.w3.org/2000/svg">
<path d="M210.632 221.801H15.7327C7.40395 221.801 0.662354 215.18 0.662354 207.008V15.6367C0.662354 7.46487 7.40395 0.841309 15.7327 0.841309H210.632C218.95 0.841309 225.686 7.46285 225.686 15.6367V207.008C225.686 215.18 218.95 221.801 210.632 221.801Z" fill="white"/>
<path d="M135.5 105.037C143.028 98.7979 147.808 89.4801 147.808 79.0566C147.808 60.2734 132.3 45.0476 113.174 45.0476C94.0525 45.0476 78.5479 60.2734 78.5479 79.0566C78.5479 89.4801 83.336 98.7979 90.8536 105.037C81.0716 110.404 74.4432 120.661 74.4432 132.451V166.858H151.909V132.451C151.909 120.661 145.282 110.404 135.5 105.037Z" fill="#D03D28"/>
</svg>
