<svg width="47" height="38" viewBox="0 0 47 38" fill="none" xmlns="http://www.w3.org/2000/svg">
<path d="M44.4605 37.8877H1.85567C0.863471 37.8877 0.0585938 37.1014 0.0585938 36.1231V8.65671C0.0585938 7.68046 0.861412 6.89209 1.85567 6.89209H44.4605C45.4548 6.89209 46.2576 7.68046 46.2576 8.65671V36.1231C46.2576 37.0993 45.4568 37.8877 44.4605 37.8877ZM3.6507 34.3587H42.6655V10.4171H3.6507V34.3587Z" fill="#F1F1F1"/>
<path d="M23.1571 31.5392C18.0191 31.5392 13.8383 27.432 13.8383 22.3911C13.8383 17.3481 18.0211 13.2407 23.1571 13.2407C28.2992 13.2407 32.4821 17.3481 32.4821 22.3911C32.4801 27.432 28.2972 31.5392 23.1571 31.5392ZM23.1571 16.7658C19.9973 16.7658 17.4304 19.2883 17.4304 22.3888C17.4304 25.4894 19.9994 28.0121 23.1571 28.0121C26.3148 28.0121 28.89 25.4914 28.89 22.3888C28.89 19.2862 26.3148 16.7658 23.1571 16.7658Z" fill="#F1F1F1"/>
<path d="M37.4657 10.4193H9.27448C8.63017 10.4193 8.04145 10.082 7.71826 9.53629C7.39714 8.99056 7.39714 8.31735 7.71826 7.77364L11.5368 1.32184C11.8579 0.776103 12.4549 0.444702 13.093 0.444702H32.8011C33.3857 0.444702 33.9312 0.719522 34.2688 1.18441L38.9313 7.63423C39.3183 8.1739 39.3698 8.8813 39.0589 9.46745C38.7481 10.0536 38.1388 10.4193 37.4657 10.4193ZM12.3972 6.89231H33.9827L31.8707 3.96977H14.1264L12.3972 6.89231Z" fill="#F1F1F1"/>
</svg>
