<svg width="401" height="400" viewBox="0 0 401 400" fill="none" xmlns="http://www.w3.org/2000/svg">
<path d="M400.096 1.74538L398.33 400L0.0961914 398.245L1.85277 0L400.096 1.74538Z" fill="url(#paint0_linear)"/>
<path d="M297.649 214.09V181.566H275.368C273.273 172.887 269.725 164.771 264.954 157.537L281.04 141.45L258.039 118.439L241.574 134.904C234.389 130.443 226.458 127.108 217.925 125.256V101.818H185.403V125.256C176.879 127.108 168.938 130.443 161.753 134.904L145.298 118.439L122.288 141.45L138.373 157.537C133.574 164.771 130.066 172.887 127.981 181.566H105.678V214.09H127.252C129.055 223.205 132.498 231.66 137.23 239.282L122.288 254.216L145.298 277.217L159.862 262.662C167.512 267.733 176.152 271.437 185.412 273.464V293.837H217.934V273.464C227.214 271.437 235.853 267.733 243.513 262.662L258.058 277.217L281.059 254.216L266.116 239.282C270.848 231.66 274.31 223.205 276.113 214.09H297.649ZM201.673 239.185C179.662 239.185 161.831 221.352 161.831 199.35C161.831 177.357 179.672 159.525 201.673 159.525C223.675 159.525 241.496 177.357 241.496 199.35C241.496 221.352 223.675 239.185 201.673 239.185Z" fill="white"/>
<defs>
<linearGradient id="paint0_linear" x1="201.581" y1="-85.146" x2="199.438" y2="401.36" gradientUnits="userSpaceOnUse">
<stop stop-color="#F2D210"/>
<stop offset="1" stop-color="#EAA42C"/>
</linearGradient>
</defs>
</svg>
