<svg width="371" height="361" viewBox="0 0 371 361" fill="none" xmlns="http://www.w3.org/2000/svg">
<path d="M371 180.5C371 280.19 287.944 361 185.498 361C83.0485 361 0 280.19 0 180.5C0 80.812 83.0485 0 185.498 0C287.944 0 371 80.812 371 180.5Z" fill="white"/>
<path d="M301.399 292.279C299.683 292.279 297.964 291.661 296.623 290.418C293.86 287.85 293.757 283.588 296.396 280.9C323.08 253.698 337.773 218.043 337.773 180.504C337.773 127.895 308.441 79.2287 261.22 53.4907C257.888 51.6735 256.699 47.5709 258.566 44.3261C260.432 41.0812 264.648 39.9261 267.982 41.7432C319.565 69.8588 351.611 123.029 351.611 180.504C351.611 221.522 335.555 260.479 306.404 290.197C305.047 291.581 303.225 292.279 301.399 292.279Z" fill="#CBCAE5"/>
<path d="M261.899 52.3126C240.114 40.4443 215.027 33.6803 188.267 33.6803C104.933 33.8261 37.5262 99.4136 37.3783 180.502C37.3783 219.822 53.2709 255.457 79.1342 281.829C81.2442 283.98 81.1596 287.388 78.9529 289.443C76.7383 291.498 73.2379 291.417 71.1297 289.266C43.3871 261.003 26.3013 222.679 26.3013 180.504C26.3052 93.4611 98.8153 22.9115 188.267 22.9095C216.95 22.9057 243.932 30.1744 267.31 42.9177C269.976 44.3722 270.927 47.6555 269.436 50.2499C267.939 52.8423 264.565 53.7671 261.899 52.3126Z" fill="url(#paint0_linear)"/>
<path d="M130.577 140.799V145.859H121.791V169.378H115.613V145.859H106.784V140.799H130.577Z" fill="#404041"/>
<path d="M143.539 147.75C143.612 147.756 143.778 147.768 144.028 147.779V153.442C143.669 153.403 143.35 153.377 143.074 153.363C142.792 153.352 142.569 153.344 142.395 153.344C140.112 153.344 138.573 154.067 137.793 155.514C137.353 156.33 137.134 157.583 137.134 159.275V169.378H131.415V148.244H136.838V151.928C137.712 150.519 138.475 149.556 139.13 149.038C140.189 148.173 141.571 147.739 143.275 147.739C143.377 147.741 143.466 147.743 143.539 147.75Z" fill="#404041"/>
<path d="M155.959 156.524C157.014 156.395 157.773 156.234 158.226 156.04C159.043 155.704 159.451 155.18 159.451 154.47C159.451 153.605 159.135 153.006 158.51 152.676C157.883 152.346 156.966 152.181 155.754 152.181C154.395 152.181 153.431 152.504 152.865 153.15C152.46 153.628 152.19 154.275 152.056 155.088H146.58C146.7 153.24 147.231 151.72 148.179 150.531C149.69 148.669 152.277 147.739 155.945 147.739C158.333 147.739 160.455 148.197 162.313 149.115C164.164 150.034 165.093 151.765 165.093 154.311V164.007C165.093 164.679 165.105 165.492 165.132 166.45C165.174 167.173 165.286 167.665 165.472 167.924C165.657 168.183 165.937 168.396 166.308 168.563V169.376H160.133C159.96 168.95 159.842 168.549 159.775 168.175C159.706 167.801 159.652 167.375 159.613 166.895C158.824 167.722 157.915 168.426 156.885 169.01C155.657 169.695 154.267 170.038 152.719 170.038C150.739 170.038 149.106 169.491 147.82 168.399C146.53 167.308 145.884 165.759 145.884 163.756C145.884 161.158 146.923 159.277 148.995 158.112C150.135 157.479 151.808 157.028 154.014 156.756L155.959 156.524ZM159.429 159.103C159.067 159.323 158.702 159.5 158.331 159.636C157.958 159.772 157.454 159.897 156.807 160.014L155.513 160.246C154.3 160.453 153.432 160.705 152.902 161.002C152.009 161.507 151.561 162.288 151.561 163.349C151.561 164.293 151.835 164.974 152.381 165.395C152.928 165.815 153.59 166.026 154.373 166.026C155.614 166.026 156.757 165.677 157.805 164.978C158.848 164.28 159.392 163.007 159.429 161.158V159.103Z" fill="#404041"/>
<path d="M175.893 145.724H170.134V140.624H175.893V145.724ZM170.134 148.244H175.893V169.378H170.134V148.244Z" fill="#404041"/>
<path d="M198.91 149.456C200.332 150.6 201.044 152.498 201.044 155.148V169.38H195.224V156.524C195.224 155.413 195.071 154.561 194.771 153.966C194.217 152.88 193.162 152.337 191.606 152.337C189.695 152.337 188.381 153.133 187.669 154.722C187.299 155.562 187.115 156.635 187.115 157.94V169.38H181.438V148.284H186.938V151.368C187.661 150.281 188.352 149.499 188.999 149.021C190.166 148.167 191.641 147.741 193.424 147.741C195.658 147.741 197.484 148.313 198.91 149.456Z" fill="#404041"/>
<path d="M212.16 145.724H206.402V140.624H212.16V145.724ZM206.402 148.244H212.16V169.378H206.402V148.244Z" fill="#404041"/>
<path d="M235.176 149.456C236.598 150.6 237.31 152.498 237.31 155.148V169.38H231.49V156.524C231.49 155.413 231.337 154.561 231.037 153.966C230.483 152.88 229.428 152.337 227.872 152.337C225.961 152.337 224.647 153.133 223.935 154.722C223.564 155.562 223.381 156.635 223.381 157.94V169.38H217.704V148.284H223.204V151.368C223.927 150.281 224.618 149.499 225.265 149.021C226.432 148.167 227.907 147.741 229.69 147.741C231.926 147.741 233.752 148.313 235.176 149.456Z" fill="#404041"/>
<path d="M253.332 148.224C254.711 148.781 255.829 149.802 256.675 151.289V148.245H262.215V168.294C262.215 171.021 261.745 173.078 260.801 174.459C259.18 176.837 256.072 178.027 251.475 178.027C248.698 178.027 246.432 177.497 244.681 176.436C242.924 175.375 241.954 173.792 241.768 171.685H247.947C248.104 172.329 248.367 172.796 248.726 173.082C249.335 173.586 250.366 173.838 251.814 173.838C253.859 173.838 255.225 173.172 255.92 171.84C256.371 170.988 256.594 169.553 256.594 167.536V166.177C256.052 167.083 255.466 167.762 254.841 168.213C253.713 169.054 252.246 169.474 250.439 169.474C247.647 169.474 245.421 168.52 243.752 166.615C242.084 164.709 241.251 162.127 241.251 158.868C241.251 155.727 242.052 153.087 243.659 150.947C245.267 148.808 247.538 147.739 250.485 147.739C251.577 147.741 252.524 147.902 253.332 148.224ZM255.267 163.378C256.18 162.401 256.637 160.847 256.637 158.715C256.637 156.712 256.202 155.186 255.336 154.138C254.47 153.092 253.311 152.569 251.853 152.569C249.869 152.569 248.499 153.48 247.748 155.303C247.351 156.272 247.15 157.468 247.15 158.889C247.15 160.118 247.361 161.209 247.785 162.167C248.552 163.951 249.927 164.842 251.914 164.842C253.238 164.842 254.354 164.354 255.267 163.378Z" fill="#404041"/>
<path d="M127.839 204.661C126.122 206.058 123.669 206.754 120.476 206.754H114.359V217.03H108.261V188.448H120.872C123.781 188.448 126.098 189.185 127.828 190.659C129.557 192.132 130.419 194.414 130.419 197.503C130.419 200.88 129.561 203.266 127.839 204.661ZM123.156 194.366C122.381 193.732 121.292 193.416 119.89 193.416H114.359V201.83H119.89C121.292 201.83 122.383 201.489 123.156 200.804C123.935 200.119 124.323 199.033 124.323 197.545C124.323 196.058 123.933 194.999 123.156 194.366Z" fill="#404041"/>
<path d="M149.039 196.325C150.554 196.985 151.804 198.027 152.79 199.451C153.679 200.706 154.257 202.162 154.519 203.82C154.673 204.791 154.734 206.19 154.709 208.015H138.891C138.98 210.135 139.735 211.62 141.159 212.474C142.028 213.004 143.074 213.269 144.29 213.269C145.584 213.269 146.635 212.946 147.446 212.3C147.889 211.95 148.278 211.465 148.617 210.845H154.413C154.259 212.1 153.557 213.372 152.307 214.666C150.362 216.721 147.639 217.749 144.137 217.749C141.244 217.749 138.694 216.882 136.483 215.149C134.276 213.417 133.17 210.596 133.17 206.687C133.17 203.026 134.168 200.218 136.164 198.265C138.159 196.312 140.747 195.335 143.93 195.335C145.819 195.335 147.521 195.665 149.039 196.325ZM140.542 201.099C139.737 201.903 139.232 202.995 139.027 204.371H148.81C148.706 202.905 148.205 201.792 147.296 201.032C146.391 200.272 145.271 199.892 143.93 199.892C142.472 199.89 141.342 200.293 140.542 201.099Z" fill="#404041"/>
<path d="M175.096 197.108C176.518 198.251 177.23 200.149 177.23 202.799V217.032H171.41V204.175C171.41 203.064 171.26 202.212 170.957 201.617C170.402 200.531 169.347 199.988 167.793 199.988C165.878 199.988 164.565 200.784 163.853 202.373C163.487 203.214 163.303 204.286 163.303 205.591V217.032H157.622V195.935H163.122V199.019C163.849 197.933 164.539 197.15 165.186 196.672C166.35 195.818 167.825 195.392 169.612 195.392C171.844 195.392 173.674 195.964 175.096 197.108Z" fill="#404041"/>
<path d="M194.025 196.237C195.051 196.799 195.877 197.578 196.518 198.574V188.492H202.276V217.034H196.756V214.105C195.948 215.359 195.023 216.27 193.988 216.84C192.953 217.41 191.661 217.694 190.121 217.694C187.583 217.694 185.449 216.694 183.715 214.696C181.982 212.699 181.116 210.137 181.116 207.009C181.116 203.404 181.968 200.566 183.678 198.497C185.384 196.429 187.663 195.394 190.523 195.394C191.834 195.392 193.006 195.675 194.025 196.237ZM195.419 211.292C196.26 210.13 196.676 208.623 196.676 206.775C196.676 204.189 196.005 202.341 194.664 201.23C193.84 200.558 192.885 200.222 191.795 200.222C190.134 200.222 188.914 200.833 188.137 202.055C187.362 203.277 186.973 204.793 186.973 206.603C186.973 208.556 187.366 210.116 188.16 211.285C188.949 212.455 190.148 213.041 191.753 213.041C193.363 213.039 194.583 212.455 195.419 211.292Z" fill="#404041"/>
<path d="M213.277 193.376H207.518V188.275H213.277V193.376ZM207.518 195.897H213.277V217.032H207.518V195.897Z" fill="#404041"/>
<path d="M236.29 197.108C237.712 198.251 238.424 200.149 238.424 202.799V217.032H232.604V204.175C232.604 203.064 232.454 202.212 232.151 201.617C231.596 200.531 230.541 199.988 228.987 199.988C227.073 199.988 225.759 200.784 225.048 202.373C224.681 203.214 224.497 204.286 224.497 205.591V217.032H218.816V195.935H224.316V199.019C225.043 197.933 225.734 197.15 226.38 196.672C227.544 195.818 229.019 195.392 230.806 195.392C233.038 195.392 234.868 195.964 236.29 197.108Z" fill="#404041"/>
<path d="M254.451 195.878C255.829 196.434 256.943 197.455 257.793 198.942V195.899H263.333V215.947C263.333 218.674 262.859 220.731 261.919 222.113C260.298 224.49 257.19 225.68 252.591 225.68C249.814 225.68 247.549 225.15 245.798 224.089C244.044 223.028 243.074 221.445 242.889 219.338H249.067C249.225 219.983 249.483 220.449 249.842 220.735C250.456 221.24 251.483 221.491 252.93 221.491C254.975 221.491 256.346 220.825 257.036 219.493C257.487 218.641 257.715 217.206 257.715 215.189V213.831C257.168 214.737 256.586 215.416 255.961 215.867C254.829 216.707 253.362 217.127 251.556 217.127C248.767 217.127 246.537 216.174 244.873 214.268C243.204 212.361 242.368 209.78 242.368 206.522C242.368 203.381 243.173 200.74 244.776 198.601C246.381 196.461 248.659 195.392 251.605 195.392C252.69 195.392 253.638 195.554 254.451 195.878ZM256.383 211.031C257.297 210.055 257.75 208.5 257.75 206.368C257.75 204.365 257.318 202.84 256.452 201.792C255.587 200.746 254.423 200.222 252.97 200.222C250.982 200.222 249.615 201.134 248.86 202.957C248.464 203.926 248.266 205.121 248.266 206.543C248.266 207.771 248.478 208.863 248.898 209.82C249.669 211.605 251.043 212.495 253.027 212.495C254.354 212.493 255.47 212.006 256.383 211.031Z" fill="#404041"/>
<defs>
<linearGradient id="paint0_linear" x1="24.9611" y1="156.806" x2="271.574" y2="156.806" gradientUnits="userSpaceOnUse">
<stop stop-color="#F7CA6A"/>
<stop offset="0.0694" stop-color="#F7CA65"/>
<stop offset="0.6767" stop-color="#F9C841"/>
<stop offset="1" stop-color="#F9C733"/>
</linearGradient>
</defs>
</svg>
