<?xml version="1.0" standalone="no"?>
<!DOCTYPE svg PUBLIC "-//W3C//DTD SVG 20010904//EN"
 "http://www.w3.org/TR/2001/REC-SVG-20010904/DTD/svg10.dtd">
<svg version="1.0" xmlns="http://www.w3.org/2000/svg"
 width="810.000000pt" height="810.000000pt" viewBox="0 0 810.000000 810.000000"
 preserveAspectRatio="xMidYMid meet">

<g transform="translate(0.000000,810.000000) scale(0.100000,-0.100000)"
fill="#000000" stroke="none">
<path d="M2330 4885 l0 -54 98 -3 97 -3 3 -262 2 -263 65 0 65 0 0 265 0 265
95 0 95 0 0 55 0 55 -260 0 -260 0 0 -55z"/>
<path d="M3720 4885 l0 -55 60 0 60 0 0 55 0 55 -60 0 -60 0 0 -55z"/>
<path d="M4510 4885 l0 -55 60 0 60 0 0 55 0 55 -60 0 -60 0 0 -55z"/>
<path d="M3028 4740 l-38 -41 0 36 0 35 -60 0 -60 0 0 -235 0 -235 59 0 59 0
4 151 3 151 33 29 c24 22 42 29 72 29 l40 0 0 60 0 60 -37 0 c-29 0 -43 -8
-75 -40z"/>
<path d="M3305 4768 c-42 -15 -65 -37 -86 -83 -29 -62 -26 -65 41 -65 44 0 60
4 60 13 0 27 41 52 85 52 49 0 75 -18 75 -51 0 -30 -19 -39 -108 -53 -140 -22
-182 -59 -182 -159 0 -46 4 -57 34 -90 34 -36 36 -37 109 -37 65 0 78 3 110
28 43 33 45 33 49 5 3 -21 9 -23 71 -26 70 -3 76 1 52 32 -12 16 -15 55 -15
185 0 197 -7 218 -86 245 -53 18 -163 20 -209 4z m165 -339 c-17 -40 -87 -67
-127 -47 -22 10 -29 21 -31 49 -4 46 10 57 95 78 l68 16 3 -34 c2 -18 -2 -46
-8 -62z"/>
<path d="M4160 4773 c-8 -3 -30 -19 -47 -36 l-33 -31 0 32 0 32 -60 0 -60 0 0
-235 0 -235 60 0 60 0 0 133 c1 206 18 247 106 247 69 0 74 -14 74 -212 l0
-168 66 0 66 0 -4 193 c-3 213 -7 229 -71 267 -31 19 -120 26 -157 13z"/>
<path d="M4950 4773 c-8 -3 -30 -19 -47 -36 l-33 -31 0 32 0 32 -60 0 -60 0 0
-235 0 -235 65 0 65 0 0 155 c0 202 10 225 99 225 69 0 76 -17 79 -211 l4
-169 59 0 59 0 0 183 c0 205 -7 233 -69 274 -26 18 -47 23 -90 22 -31 0 -63
-3 -71 -6z"/>
<path d="M5384 4766 c-89 -40 -138 -194 -103 -321 24 -86 98 -145 184 -145 50
0 77 10 113 43 l22 20 0 -46 c0 -84 -31 -117 -111 -117 -30 0 -46 6 -63 25
-20 22 -32 25 -86 25 l-62 0 7 -27 c18 -76 103 -118 227 -111 105 5 158 32
188 93 18 38 20 62 20 303 l0 262 -55 0 -55 0 0 -32 0 -32 -35 34 c-31 30 -42
34 -98 37 -38 2 -74 -2 -93 -11z m182 -120 c32 -32 34 -38 34 -100 0 -77 -14
-112 -51 -132 -84 -43 -152 12 -152 123 0 65 18 110 52 128 44 24 80 18 117
-19z"/>
<path d="M3720 4535 l0 -235 60 0 60 0 0 235 0 235 -60 0 -60 0 0 -235z"/>
<path d="M4510 4535 l0 -235 60 0 60 0 0 235 0 235 -60 0 -60 0 0 -235z"/>
<path d="M2370 3550 l0 -320 60 0 60 0 0 114 0 113 113 5 c88 4 121 10 154 27
60 30 86 84 86 176 0 99 -26 148 -96 181 -48 22 -64 24 -214 24 l-163 0 0
-320z m304 199 c52 -24 56 -121 8 -160 -22 -17 -38 -19 -106 -17 l-81 3 -3 93
-3 92 80 0 c44 0 91 -5 105 -11z"/>
<path d="M4290 3758 l0 -112 -29 28 c-51 49 -163 48 -222 -1 -51 -43 -79 -115
-79 -202 0 -91 14 -139 53 -187 37 -44 81 -64 142 -64 52 0 77 10 118 48 l27
26 0 -32 0 -32 55 0 55 0 0 320 0 320 -60 0 -60 0 0 -112z m-42 -173 c64 -54
62 -207 -4 -250 -56 -37 -132 -7 -155 62 -14 45 -6 136 16 169 32 49 98 57
143 19z"/>
<path d="M4530 3815 l0 -55 60 0 60 0 0 55 0 55 -60 0 -60 0 0 -55z"/>
<path d="M3085 3711 c-107 -27 -165 -103 -173 -227 -6 -97 16 -162 71 -209 48
-41 90 -55 170 -55 66 0 120 19 160 58 26 24 57 72 57 87 0 3 -29 5 -64 5 -48
0 -65 -4 -70 -15 -9 -24 -72 -47 -111 -39 -49 9 -95 60 -95 105 0 5 71 9 170
9 134 0 172 3 176 13 11 29 -16 142 -43 182 -46 66 -165 107 -248 86z m138
-132 c15 -16 27 -38 27 -49 0 -19 -7 -20 -105 -20 -102 0 -105 1 -105 23 1 80
122 112 183 46z"/>
<path d="M3600 3674 l-40 -36 0 31 0 31 -60 0 -60 0 0 -235 0 -235 60 0 60 0
0 133 c1 206 18 247 106 247 69 0 74 -14 74 -212 l0 -168 66 0 66 0 -4 193
c-3 166 -6 197 -21 220 -30 47 -74 67 -144 67 -58 0 -66 -3 -103 -36z"/>
<path d="M4953 3691 c-17 -11 -36 -28 -42 -38 -9 -15 -10 -13 -11 15 l0 32
-60 0 -60 0 0 -235 0 -235 59 0 60 0 3 164 c3 158 4 165 27 190 19 20 34 26
65 26 79 0 86 -19 86 -219 l0 -161 60 0 60 0 0 193 c0 175 -2 195 -20 225 -11
18 -36 40 -55 48 -50 20 -133 18 -172 -5z"/>
<path d="M5399 3689 c-125 -73 -143 -306 -32 -411 68 -65 179 -66 238 -2 l25
27 0 -34 c0 -53 -19 -107 -43 -124 -12 -8 -42 -15 -68 -15 -39 0 -51 5 -67 25
-17 22 -28 25 -81 25 -59 0 -61 -1 -61 -26 0 -36 59 -90 113 -105 53 -14 194
-7 227 12 92 52 100 85 100 396 l0 243 -60 0 -60 0 0 -32 0 -33 -23 27 c-31
37 -58 48 -119 48 -35 0 -65 -7 -89 -21z m191 -104 c45 -41 52 -161 13 -213
-25 -34 -82 -50 -118 -34 -79 36 -88 203 -14 256 29 21 92 16 119 -9z"/>
<path d="M4530 3465 l0 -235 60 0 60 0 0 235 0 235 -60 0 -60 0 0 -235z"/>
</g>
</svg>
